<svg preserveAspectRatio="none" width="100%" height="100%" overflow="visible" style="display: block;" viewBox="0 0 67.4225 66.3804" fill="none" xmlns="http://www.w3.org/2000/svg">
<path id="Vector" d="M0 65.9038L0.0652374 66.3804C2.21255 66.2544 9.64331 65.9678 11.6207 66.2536C14.6617 65.9077 23.6366 66.0798 27.262 66.0598C32.842 60.5248 38.4547 55.0235 44.1017 49.5561C46.5965 47.1099 49.0548 44.4322 51.5626 42.0721C52.6437 43.702 51.8173 60.1014 51.9836 63.2121V66.2489H67.1029C67.1938 52.2842 67.212 38.3193 67.1627 24.3546C67.173 16.6676 67.0223 7.64177 67.4225 0C64.6185 3.33856 59.7745 7.86552 56.4975 11.0827L34.1757 32.684L11.4421 54.9796C8.15528 58.1799 3.41549 63.0559 0 65.9038Z" fill="var(--fill-0, #F8F8F7)"/>
</svg>
