<svg preserveAspectRatio="none" width="100%" height="100%" overflow="visible" style="display: block;" viewBox="0 0 18.3353 18.3353" fill="none" xmlns="http://www.w3.org/2000/svg">
<g id="Icon">
<path id="Vector" d="M8.26114 10.0731C8.10188 9.91409 7.91207 9.78909 7.70317 9.70539L1.09483 7.05542C1.01593 7.02376 0.948602 6.96872 0.901882 6.89769C0.855162 6.82666 0.831292 6.74304 0.833472 6.65805C0.835642 6.57307 0.863772 6.49078 0.914062 6.42223C0.964352 6.35369 1.03441 6.30217 1.11483 6.27459L16.9481 0.857916C17.022 0.831246 17.1019 0.826156 17.1785 0.843246C17.2551 0.860326 17.3253 0.898886 17.3808 0.954396C17.4363 1.00992 17.4749 1.08009 17.492 1.15672C17.5091 1.23334 17.504 1.31325 17.4773 1.38709L12.0606 17.2204C12.0331 17.3009 11.9815 17.3709 11.913 17.4212C11.8445 17.4715 11.7622 17.4996 11.6772 17.5018C11.5922 17.504 11.5086 17.4801 11.4375 17.4334C11.3665 17.3867 11.3115 17.3193 11.2798 17.2404L8.62983 10.6304C8.54582 10.4217 8.4204 10.2321 8.26114 10.0731ZM8.26114 10.0731L17.3781 0.957916" stroke="var(--stroke-0, #050C1A)" stroke-width="1.66667" stroke-linecap="round" stroke-linejoin="round"/>
</g>
</svg>
