<svg preserveAspectRatio="none" width="100%" height="100%" overflow="visible" style="display: block;" viewBox="0 0 24 24" fill="none" xmlns="http://www.w3.org/2000/svg">
<g id="SVG">
<path id="Vector" fill-rule="evenodd" clip-rule="evenodd" d="M21.4197 13.2408L18.7282 12.8897C18.766 12.5997 18.7857 12.3028 18.7857 12C18.7857 11.6972 18.766 11.4003 18.7282 11.1103L21.4197 10.7592C21.4727 11.1653 21.5 11.5795 21.5 12C21.5 12.4205 21.4727 12.8347 21.4197 13.2408ZM20.7791 8.36352C20.4588 7.59119 20.0396 6.87026 19.5373 6.21655L17.3851 7.87043C17.7445 8.33822 18.0438 8.85304 18.2719 9.40323L20.7791 8.36352ZM17.7835 4.4627L16.1295 6.61491C15.6617 6.25543 15.1469 5.95628 14.5968 5.72813L15.6365 3.22086C16.4088 3.54113 17.1297 3.96035 17.7835 4.4627ZM13.2408 2.5803L12.8897 5.27179C12.5997 5.23395 12.3028 5.21429 12 5.21429C11.6972 5.21429 11.4003 5.23395 11.1103 5.27179L10.7592 2.5803C11.1653 2.52732 11.5795 2.5 12 2.5C12.4205 2.5 12.8347 2.52732 13.2408 2.5803ZM8.36352 3.22086L9.40323 5.72813C8.85304 5.95628 8.33822 6.25543 7.87043 6.61491L6.21655 4.4627C6.87026 3.96035 7.59119 3.54113 8.36352 3.22086ZM4.4627 6.21655L6.61491 7.87043C6.25543 8.33822 5.95628 8.85304 5.72813 9.40323L3.22086 8.36352C3.54113 7.59119 3.96035 6.87026 4.4627 6.21655ZM2.5803 10.7592C2.52732 11.1653 2.5 11.5795 2.5 12C2.5 12.4205 2.52732 12.8347 2.5803 13.2408L5.27179 12.8897C5.23395 12.5997 5.21429 12.3028 5.21429 12C5.21429 11.6972 5.23395 11.4003 5.27179 11.1103L2.5803 10.7592ZM3.22086 15.6365L5.72813 14.5968C5.95628 15.1469 6.25543 15.6617 6.61491 16.1295L4.4627 17.7835C3.96035 17.1297 3.54113 16.4088 3.22086 15.6365ZM6.21655 19.5373L7.87043 17.3851C8.33822 17.7445 8.85304 18.0438 9.40323 18.2719L8.36352 20.7791C7.59119 20.4588 6.87026 20.0396 6.21655 19.5373ZM10.7592 21.4197L11.1103 18.7282C11.4003 18.766 11.6972 18.7857 12 18.7857C12.3028 18.7857 12.5997 18.766 12.8897 18.7282L13.2408 21.4197C12.8347 21.4727 12.4205 21.5 12 21.5C11.5795 21.5 11.1653 21.4727 10.7592 21.4197ZM15.6365 20.7791L14.5968 18.2719C15.1469 18.0438 15.6617 17.7445 16.1295 17.3851L17.7835 19.5373C17.1297 20.0396 16.4088 20.4588 15.6365 20.7791ZM19.5373 17.7835L17.3851 16.1295C17.7445 15.6617 18.0438 15.1469 18.2719 14.5968L20.7791 15.6365C20.4588 16.4088 20.0397 17.1297 19.5373 17.7835Z" fill="var(--fill-0, white)"/>
</g>
</svg>
