<svg preserveAspectRatio="none" width="100%" height="100%" overflow="visible" style="display: block;" viewBox="0 0 9.75 9" fill="none" xmlns="http://www.w3.org/2000/svg">
<g id="Desktop">
<path id="VETOR2" opacity="0.2" d="M9.375 1.125V5.25H0.375V1.125C0.375 0.926085 0.45402 0.735323 0.594668 0.594668C0.735323 0.45402 0.926085 0.375 1.125 0.375H8.625C8.8239 0.375 9.0147 0.45402 9.15532 0.594668C9.29595 0.735323 9.375 0.926085 9.375 1.125Z" fill="var(--fill-0, #4F70AB)"/>
<path id="VETOR1" d="M8.625 0H1.125C0.826635 0 0.54048 0.11853 0.329505 0.329505C0.11853 0.54048 0 0.826635 0 1.125V6.375C0 6.67335 0.11853 6.95955 0.329505 7.17053C0.54048 7.3815 0.826635 7.5 1.125 7.5H4.5V8.25H3.375C3.27554 8.25 3.18016 8.28953 3.10984 8.3598C3.03951 8.43015 3 8.52555 3 8.625C3 8.72445 3.03951 8.81985 3.10984 8.8902C3.18016 8.96047 3.27554 9 3.375 9H6.375C6.47445 9 6.56985 8.96047 6.6402 8.8902C6.71047 8.81985 6.75 8.72445 6.75 8.625C6.75 8.52555 6.71047 8.43015 6.6402 8.3598C6.56985 8.28953 6.47445 8.25 6.375 8.25H5.25V7.5H8.625C8.92335 7.5 9.20955 7.3815 9.42053 7.17053C9.6315 6.95955 9.75 6.67335 9.75 6.375V1.125C9.75 0.826635 9.6315 0.54048 9.42053 0.329505C9.20955 0.11853 8.92335 0 8.625 0ZM1.125 0.75H8.625C8.72445 0.75 8.81985 0.78951 8.8902 0.859838C8.96047 0.930158 9 1.02554 9 1.125V4.875H0.75V1.125C0.75 1.02554 0.78951 0.930158 0.859838 0.859838C0.930158 0.78951 1.02554 0.75 1.125 0.75ZM8.625 6.75H1.125C1.02554 6.75 0.930158 6.71047 0.859838 6.6402C0.78951 6.56985 0.75 6.47445 0.75 6.375V5.625H9V6.375C9 6.47445 8.96047 6.56985 8.8902 6.6402C8.81985 6.71047 8.72445 6.75 8.625 6.75Z" fill="var(--fill-0, #050C1A)"/>
</g>
</svg>
