<svg width="64" height="64" viewBox="0 0 64 64" fill="none" xmlns="http://www.w3.org/2000/svg">
  <path
    d="M8 58.1L8.06 58.5C10.1 58.38 17.16 58.11 19.04 58.38C21.93 58.05 30.46 58.21 33.9 58.19C39.2 52.93 44.53 47.71 49.88 42.52C52.25 40.19 54.58 37.65 56.96 35.41C57.99 36.96 57.21 52.52 57.37 55.47V58.38H61.92C62.01 45.13 62.02 31.88 61.98 18.64C61.99 11.34 61.85 2.77 62.23 -4.57764e-05C59.57 3.17 54.97 7.47 51.86 10.52L30.68 31.03L9.02 52.2C5.89 55.24 1.38 59.87 8 58.1Z"
    fill="#F8F8F7"
  />
</svg>
