<svg preserveAspectRatio="none" width="100%" height="100%" overflow="visible" style="display: block;" viewBox="0 0 1276.14 159.999" fill="none" xmlns="http://www.w3.org/2000/svg">
<g id="Group" opacity="0.2">
<path id="Vector" d="M77.1863 96.2563C77.1863 104.939 70.1663 111.959 61.4832 111.959H16.667C7.98393 111.959 0.963852 104.939 0.963852 96.2563V69.8744C0.963852 61.1912 7.98393 54.1712 16.667 54.1712H61.4832C70.1663 54.1712 77.1863 61.1912 77.1863 69.8744V96.2563ZM67.1378 101.911V64.2198H11.0126V101.911H67.1378Z" fill="url(#paint0_linear_0_4)"/>
<path id="Vector_2" d="M166.293 64.2025H133.627V111.942H123.578V64.2025H90.9113V54.1539H166.293V64.2025Z" fill="url(#paint1_linear_0_4)"/>
<path id="Vector_3" d="M256.224 96.2563C256.224 104.939 249.203 111.959 240.521 111.959H195.704C187.021 111.959 180.001 104.939 180.001 96.2563V69.8744C180.001 61.1912 187.021 54.1712 195.704 54.1712H256.224V64.2198H190.049V101.911H246.175V88.0984H216.765V78.0498H256.241V96.2739L256.224 96.2563Z" fill="url(#paint2_linear_0_4)"/>
<path id="Vector_4" d="M626.115 78.6628C626.115 87.3459 619.096 94.3659 610.412 94.3659H559.941V111.96H549.893V54.1715H610.412C619.096 54.1715 626.115 61.1914 626.115 69.8745V78.6628ZM616.067 84.3173V64.22H559.941V84.3173H616.067Z" fill="url(#paint3_linear_0_4)"/>
<path id="Vector_5" d="M721.192 111.96H708.518L698.889 98.3572H646.335L636.811 111.96H624.138L661.933 59.091C664.349 55.7473 668.218 53.2264 672.613 53.2264C677.006 53.2264 680.892 55.7473 683.291 59.091L721.192 111.96ZM691.677 88.2914L672.613 60.9641L653.565 88.2914H691.677Z" fill="url(#paint4_linear_0_4)"/>
<path id="Vector_6" d="M810.3 111.96H800.251V94.3659H744.126V111.96H734.076V54.1715H794.596C803.279 54.1715 810.3 61.1914 810.3 69.8745V78.6628C810.3 83.477 807.778 87.2409 803.909 89.3417C807.778 91.4424 810.3 95.2062 810.3 100.021V111.96ZM800.251 84.3173V64.22H744.126V84.3173H800.251Z" fill="url(#paint5_linear_0_4)"/>
<path id="Vector_7" d="M899.407 64.22H866.74V111.96H856.691V64.22H824.024V54.1715H899.407V64.22Z" fill="url(#paint6_linear_0_4)"/>
<path id="Vector_8" d="M989.963 54.1542V101.578C989.963 107.864 984.941 112.887 978.657 112.887C975.524 112.887 972.691 111.628 970.589 109.544L923.162 61.3843V111.96H913.114V64.5354C913.114 58.2506 918.138 53.2264 924.423 53.2264C927.556 53.2264 930.393 54.4868 932.493 56.57L979.919 104.73V54.1542H989.963Z" fill="url(#paint7_linear_0_4)"/>
<path id="Vector_9" d="M1084.94 111.96H1024.42C1015.74 111.96 1008.72 104.939 1008.72 96.2565V69.8745C1008.72 61.1914 1015.74 54.1715 1024.42 54.1715H1084.94V64.22H1018.76V78.0326H1084.94V88.0811H1018.76V101.894H1084.94V111.96Z" fill="url(#paint8_linear_0_4)"/>
<path id="Vector_10" d="M1179.89 111.96H1169.85V94.3659H1113.72V111.96H1103.67V54.1715H1164.19C1172.87 54.1715 1179.89 61.1914 1179.89 69.8745V78.6628C1179.89 83.477 1177.37 87.2409 1173.5 89.3417C1177.37 91.4424 1179.89 95.2062 1179.89 100.021V111.96ZM1169.85 84.3173V64.22H1113.72V84.3173H1169.85Z" fill="url(#paint9_linear_0_4)"/>
<path id="Vector_11" d="M1274.66 96.2565C1274.66 104.939 1267.63 111.96 1258.95 111.96H1198.43V101.911H1264.6V88.0987H1211.42C1202.74 88.0987 1195.72 81.0786 1195.72 72.3955V69.8745C1195.72 61.1914 1202.74 54.1715 1211.42 54.1715H1271.94V64.22H1205.77V78.0326H1258.95C1267.63 78.0326 1274.66 85.0525 1274.66 93.7357V96.2565Z" fill="url(#paint10_linear_0_4)"/>
<path id="Vector_12" d="M431.217 157.634L403.067 142.211L374.916 157.634C371.502 159.507 367.774 155.708 369.717 152.329L401.001 97.9553C401.928 96.3619 404.222 96.3619 405.149 97.9553L436.433 152.329C438.376 155.708 434.648 159.507 431.234 157.634H431.217Z" fill="url(#paint11_linear_0_4)"/>
<path id="Vector_13" d="M339.273 131.742L345.243 100.195L321.873 78.1899C319.036 75.5114 321.504 70.8024 325.321 71.6076L386.698 84.5622C388.501 84.9474 389.219 87.1357 387.976 88.5012L345.925 135.05C343.317 137.939 338.539 135.575 339.273 131.742Z" fill="url(#paint12_linear_0_4)"/>
<path id="Vector_14" d="M335.493 36.2977L367.337 32.2362L381.043 3.21085C382.707 -0.307914 387.959 0.567386 388.379 4.45379L395.031 66.8287C395.224 68.6668 393.368 70.0149 391.67 69.2621L334.407 43.6679C330.853 42.0748 331.624 36.8054 335.493 36.3152V36.2977Z" fill="url(#paint13_linear_0_4)"/>
<path id="Vector_15" d="M425.09 3.19315L438.797 32.2186L470.641 36.2801C474.51 36.7703 475.28 42.0396 471.727 43.6326L414.463 69.2268C412.783 69.9796 410.909 68.6318 411.102 66.7936L417.755 4.41857C418.175 0.532165 423.409 -0.343135 425.09 3.17563V3.19315Z" fill="url(#paint14_linear_0_4)"/>
<path id="Vector_16" d="M484.26 78.1899L460.89 100.195L466.86 131.742C467.577 135.575 462.816 137.939 460.208 135.05L418.158 88.5012C416.914 87.1357 417.632 84.9474 419.435 84.5622L480.812 71.6076C484.629 70.8024 487.097 75.5114 484.26 78.1899Z" fill="url(#paint15_linear_0_4)"/>
<g id="Mask group">
<mask id="mask0_0_4" style="mask-type:luminance" maskUnits="userSpaceOnUse" x="0" y="0" width="1277" height="160">
<g id="Group_2" opacity="0.2">
<path id="Vector_17" d="M1276.14 0H0V159.999H1276.14V0Z" fill="var(--fill-0, white)"/>
<path id="Vector_18" d="M77.1863 96.2563C77.1863 104.939 70.1663 111.959 61.4832 111.959H16.667C7.98393 111.959 0.963852 104.939 0.963852 96.2563V69.8744C0.963852 61.1912 7.98393 54.1712 16.667 54.1712H61.4832C70.1663 54.1712 77.1863 61.1912 77.1863 69.8744V96.2563ZM67.1378 101.911V64.2198H11.0126V101.911H67.1378Z" fill="var(--fill-0, black)"/>
<path id="Vector_19" d="M166.293 64.2025H133.627V111.942H123.578V64.2025H90.9113V54.1539H166.293V64.2025Z" fill="var(--fill-0, black)"/>
<path id="Vector_20" d="M256.224 96.2563C256.224 104.939 249.203 111.959 240.521 111.959H195.704C187.021 111.959 180.001 104.939 180.001 96.2563V69.8744C180.001 61.1912 187.021 54.1712 195.704 54.1712H256.224V64.2198H190.049V101.911H246.175V88.0984H216.765V78.0498H256.241V96.2739L256.224 96.2563Z" fill="var(--fill-0, black)"/>
<path id="Vector_21" d="M626.115 78.6628C626.115 87.3459 619.096 94.3659 610.412 94.3659H559.941V111.96H549.893V54.1715H610.412C619.096 54.1715 626.115 61.1914 626.115 69.8745V78.6628ZM616.067 84.3173V64.22H559.941V84.3173H616.067Z" fill="var(--fill-0, black)"/>
<path id="Vector_22" d="M721.192 111.96H708.518L698.889 98.3572H646.335L636.811 111.96H624.138L661.933 59.091C664.349 55.7473 668.218 53.2264 672.613 53.2264C677.006 53.2264 680.892 55.7473 683.291 59.091L721.192 111.96ZM691.677 88.2914L672.613 60.9641L653.565 88.2914H691.677Z" fill="var(--fill-0, black)"/>
<path id="Vector_23" d="M810.3 111.96H800.251V94.3659H744.126V111.96H734.076V54.1715H794.596C803.279 54.1715 810.3 61.1914 810.3 69.8745V78.6628C810.3 83.477 807.778 87.2409 803.909 89.3417C807.778 91.4424 810.3 95.2062 810.3 100.021V111.96ZM800.251 84.3173V64.22H744.126V84.3173H800.251Z" fill="var(--fill-0, black)"/>
<path id="Vector_24" d="M899.407 64.22H866.74V111.96H856.691V64.22H824.024V54.1715H899.407V64.22Z" fill="var(--fill-0, black)"/>
<path id="Vector_25" d="M989.963 54.1542V101.578C989.963 107.864 984.941 112.887 978.657 112.887C975.524 112.887 972.691 111.628 970.589 109.544L923.162 61.3843V111.96H913.114V64.5354C913.114 58.2506 918.138 53.2264 924.423 53.2264C927.556 53.2264 930.393 54.4868 932.493 56.57L979.919 104.73V54.1542H989.963Z" fill="var(--fill-0, black)"/>
<path id="Vector_26" d="M1084.94 111.96H1024.42C1015.74 111.96 1008.72 104.939 1008.72 96.2565V69.8745C1008.72 61.1914 1015.74 54.1715 1024.42 54.1715H1084.94V64.22H1018.76V78.0326H1084.94V88.0811H1018.76V101.894H1084.94V111.96Z" fill="var(--fill-0, black)"/>
<path id="Vector_27" d="M1179.89 111.96H1169.85V94.3659H1113.72V111.96H1103.67V54.1715H1164.19C1172.87 54.1715 1179.89 61.1914 1179.89 69.8745V78.6628C1179.89 83.477 1177.37 87.2409 1173.5 89.3417C1177.37 91.4424 1179.89 95.2062 1179.89 100.021V111.96ZM1169.85 84.3173V64.22H1113.72V84.3173H1169.85Z" fill="var(--fill-0, black)"/>
<path id="Vector_28" d="M1274.66 96.2565C1274.66 104.939 1267.63 111.96 1258.95 111.96H1198.43V101.911H1264.6V88.0987H1211.42C1202.74 88.0987 1195.72 81.0786 1195.72 72.3955V69.8745C1195.72 61.1914 1202.74 54.1715 1211.42 54.1715H1271.94V64.22H1205.77V78.0326H1258.95C1267.63 78.0326 1274.66 85.0525 1274.66 93.7357V96.2565Z" fill="var(--fill-0, black)"/>
<path id="Vector_29" d="M431.217 157.634L403.067 142.211L374.916 157.634C371.502 159.507 367.774 155.708 369.717 152.329L401.001 97.9553C401.928 96.3619 404.222 96.3619 405.149 97.9553L436.433 152.329C438.376 155.708 434.648 159.507 431.234 157.634H431.217Z" fill="var(--fill-0, black)"/>
<path id="Vector_30" d="M339.273 131.742L345.243 100.195L321.873 78.1899C319.036 75.5114 321.504 70.8024 325.321 71.6076L386.698 84.5622C388.501 84.9474 389.219 87.1357 387.976 88.5012L345.925 135.05C343.317 137.939 338.539 135.575 339.273 131.742Z" fill="var(--fill-0, black)"/>
<path id="Vector_31" d="M335.493 36.2977L367.337 32.2362L381.043 3.21085C382.707 -0.307914 387.959 0.567386 388.379 4.45379L395.031 66.8287C395.224 68.6668 393.368 70.0149 391.67 69.2621L334.407 43.6679C330.853 42.0748 331.624 36.8054 335.493 36.3152V36.2977Z" fill="var(--fill-0, black)"/>
<path id="Vector_32" d="M425.09 3.19315L438.797 32.2186L470.641 36.2801C474.51 36.7703 475.28 42.0396 471.727 43.6326L414.463 69.2268C412.783 69.9796 410.909 68.6318 411.102 66.7936L417.755 4.41857C418.175 0.532165 423.409 -0.343135 425.09 3.17563V3.19315Z" fill="var(--fill-0, black)"/>
<path id="Vector_33" d="M484.26 78.1899L460.89 100.195L466.86 131.742C467.577 135.575 462.816 137.939 460.208 135.05L418.158 88.5012C416.914 87.1357 417.632 84.9474 419.435 84.5622L480.812 71.6076C484.629 70.8024 487.097 75.5114 484.26 78.1899Z" fill="var(--fill-0, black)"/>
</g>
</mask>
<g mask="url(#mask0_0_4)">
<path id="Vector_34" d="M77.1863 96.2563C77.1863 104.939 70.1663 111.959 61.4832 111.959H16.667C7.98393 111.959 0.963852 104.939 0.963852 96.2563V69.8744C0.963852 61.1912 7.98393 54.1712 16.667 54.1712H61.4832C70.1663 54.1712 77.1863 61.1912 77.1863 69.8744V96.2563ZM67.1378 101.911V64.2198H11.0126V101.911H67.1378Z" fill="var(--fill-0, #6EC1E4)" stroke="var(--stroke-1, #CFDDF6)" stroke-opacity="0.5" stroke-width="1.9277"/>
</g>
</g>
<g id="Mask group_2">
<mask id="mask1_0_4" style="mask-type:luminance" maskUnits="userSpaceOnUse" x="0" y="0" width="1277" height="160">
<g id="Group_3" opacity="0.2">
<path id="Vector_35" d="M1276.14 0H0V159.999H1276.14V0Z" fill="var(--fill-0, white)"/>
<path id="Vector_36" d="M77.1863 96.2563C77.1863 104.939 70.1663 111.959 61.4832 111.959H16.667C7.98393 111.959 0.963852 104.939 0.963852 96.2563V69.8744C0.963852 61.1912 7.98393 54.1712 16.667 54.1712H61.4832C70.1663 54.1712 77.1863 61.1912 77.1863 69.8744V96.2563ZM67.1378 101.911V64.2198H11.0126V101.911H67.1378Z" fill="var(--fill-0, black)"/>
<path id="Vector_37" d="M166.293 64.2025H133.627V111.942H123.578V64.2025H90.9113V54.1539H166.293V64.2025Z" fill="var(--fill-0, black)"/>
<path id="Vector_38" d="M256.224 96.2563C256.224 104.939 249.203 111.959 240.521 111.959H195.704C187.021 111.959 180.001 104.939 180.001 96.2563V69.8744C180.001 61.1912 187.021 54.1712 195.704 54.1712H256.224V64.2198H190.049V101.911H246.175V88.0984H216.765V78.0498H256.241V96.2739L256.224 96.2563Z" fill="var(--fill-0, black)"/>
<path id="Vector_39" d="M626.115 78.6628C626.115 87.3459 619.096 94.3659 610.412 94.3659H559.941V111.96H549.893V54.1715H610.412C619.096 54.1715 626.115 61.1914 626.115 69.8745V78.6628ZM616.067 84.3173V64.22H559.941V84.3173H616.067Z" fill="var(--fill-0, black)"/>
<path id="Vector_40" d="M721.192 111.96H708.518L698.889 98.3572H646.335L636.811 111.96H624.138L661.933 59.091C664.349 55.7473 668.218 53.2264 672.613 53.2264C677.006 53.2264 680.892 55.7473 683.291 59.091L721.192 111.96ZM691.677 88.2914L672.613 60.9641L653.565 88.2914H691.677Z" fill="var(--fill-0, black)"/>
<path id="Vector_41" d="M810.3 111.96H800.251V94.3659H744.126V111.96H734.076V54.1715H794.596C803.279 54.1715 810.3 61.1914 810.3 69.8745V78.6628C810.3 83.477 807.778 87.2409 803.909 89.3417C807.778 91.4424 810.3 95.2062 810.3 100.021V111.96ZM800.251 84.3173V64.22H744.126V84.3173H800.251Z" fill="var(--fill-0, black)"/>
<path id="Vector_42" d="M899.407 64.22H866.74V111.96H856.691V64.22H824.024V54.1715H899.407V64.22Z" fill="var(--fill-0, black)"/>
<path id="Vector_43" d="M989.963 54.1542V101.578C989.963 107.864 984.941 112.887 978.657 112.887C975.524 112.887 972.691 111.628 970.589 109.544L923.162 61.3843V111.96H913.114V64.5354C913.114 58.2506 918.138 53.2264 924.423 53.2264C927.556 53.2264 930.393 54.4868 932.493 56.57L979.919 104.73V54.1542H989.963Z" fill="var(--fill-0, black)"/>
<path id="Vector_44" d="M1084.94 111.96H1024.42C1015.74 111.96 1008.72 104.939 1008.72 96.2565V69.8745C1008.72 61.1914 1015.74 54.1715 1024.42 54.1715H1084.94V64.22H1018.76V78.0326H1084.94V88.0811H1018.76V101.894H1084.94V111.96Z" fill="var(--fill-0, black)"/>
<path id="Vector_45" d="M1179.89 111.96H1169.85V94.3659H1113.72V111.96H1103.67V54.1715H1164.19C1172.87 54.1715 1179.89 61.1914 1179.89 69.8745V78.6628C1179.89 83.477 1177.37 87.2409 1173.5 89.3417C1177.37 91.4424 1179.89 95.2062 1179.89 100.021V111.96ZM1169.85 84.3173V64.22H1113.72V84.3173H1169.85Z" fill="var(--fill-0, black)"/>
<path id="Vector_46" d="M1274.66 96.2565C1274.66 104.939 1267.63 111.96 1258.95 111.96H1198.43V101.911H1264.6V88.0987H1211.42C1202.74 88.0987 1195.72 81.0786 1195.72 72.3955V69.8745C1195.72 61.1914 1202.74 54.1715 1211.42 54.1715H1271.94V64.22H1205.77V78.0326H1258.95C1267.63 78.0326 1274.66 85.0525 1274.66 93.7357V96.2565Z" fill="var(--fill-0, black)"/>
<path id="Vector_47" d="M431.217 157.634L403.067 142.211L374.916 157.634C371.502 159.507 367.774 155.708 369.717 152.329L401.001 97.9553C401.928 96.3619 404.222 96.3619 405.149 97.9553L436.433 152.329C438.376 155.708 434.648 159.507 431.234 157.634H431.217Z" fill="var(--fill-0, black)"/>
<path id="Vector_48" d="M339.273 131.742L345.243 100.195L321.873 78.1899C319.036 75.5114 321.504 70.8024 325.321 71.6076L386.698 84.5622C388.501 84.9474 389.219 87.1357 387.976 88.5012L345.925 135.05C343.317 137.939 338.539 135.575 339.273 131.742Z" fill="var(--fill-0, black)"/>
<path id="Vector_49" d="M335.493 36.2977L367.337 32.2362L381.043 3.21085C382.707 -0.307914 387.959 0.567386 388.379 4.45379L395.031 66.8287C395.224 68.6668 393.368 70.0149 391.67 69.2621L334.407 43.6679C330.853 42.0748 331.624 36.8054 335.493 36.3152V36.2977Z" fill="var(--fill-0, black)"/>
<path id="Vector_50" d="M425.09 3.19315L438.797 32.2186L470.641 36.2801C474.51 36.7703 475.28 42.0396 471.727 43.6326L414.463 69.2268C412.783 69.9796 410.909 68.6318 411.102 66.7936L417.755 4.41857C418.175 0.532165 423.409 -0.343135 425.09 3.17563V3.19315Z" fill="var(--fill-0, black)"/>
<path id="Vector_51" d="M484.26 78.1899L460.89 100.195L466.86 131.742C467.577 135.575 462.816 137.939 460.208 135.05L418.158 88.5012C416.914 87.1357 417.632 84.9474 419.435 84.5622L480.812 71.6076C484.629 70.8024 487.097 75.5114 484.26 78.1899Z" fill="var(--fill-0, black)"/>
</g>
</mask>
<g mask="url(#mask1_0_4)">
<path id="Vector_52" d="M166.293 64.2025H133.627V111.942H123.578V64.2025H90.9113V54.1539H166.293V64.2025Z" fill="var(--fill-0, #6EC1E4)" stroke="var(--stroke-1, #CFDDF6)" stroke-opacity="0.5" stroke-width="1.9277"/>
</g>
</g>
<g id="Mask group_3">
<mask id="mask2_0_4" style="mask-type:luminance" maskUnits="userSpaceOnUse" x="0" y="0" width="1277" height="160">
<g id="Group_4" opacity="0.2">
<path id="Vector_53" d="M1276.14 0H0V159.999H1276.14V0Z" fill="var(--fill-0, white)"/>
<path id="Vector_54" d="M77.1863 96.2563C77.1863 104.939 70.1663 111.959 61.4832 111.959H16.667C7.98393 111.959 0.963852 104.939 0.963852 96.2563V69.8744C0.963852 61.1912 7.98393 54.1712 16.667 54.1712H61.4832C70.1663 54.1712 77.1863 61.1912 77.1863 69.8744V96.2563ZM67.1378 101.911V64.2198H11.0126V101.911H67.1378Z" fill="var(--fill-0, black)"/>
<path id="Vector_55" d="M166.293 64.2025H133.627V111.942H123.578V64.2025H90.9113V54.1539H166.293V64.2025Z" fill="var(--fill-0, black)"/>
<path id="Vector_56" d="M256.224 96.2563C256.224 104.939 249.203 111.959 240.521 111.959H195.704C187.021 111.959 180.001 104.939 180.001 96.2563V69.8744C180.001 61.1912 187.021 54.1712 195.704 54.1712H256.224V64.2198H190.049V101.911H246.175V88.0984H216.765V78.0498H256.241V96.2739L256.224 96.2563Z" fill="var(--fill-0, black)"/>
<path id="Vector_57" d="M626.115 78.6628C626.115 87.3459 619.096 94.3659 610.412 94.3659H559.941V111.96H549.893V54.1715H610.412C619.096 54.1715 626.115 61.1914 626.115 69.8745V78.6628ZM616.067 84.3173V64.22H559.941V84.3173H616.067Z" fill="var(--fill-0, black)"/>
<path id="Vector_58" d="M721.192 111.96H708.518L698.889 98.3572H646.335L636.811 111.96H624.138L661.933 59.091C664.349 55.7473 668.218 53.2264 672.613 53.2264C677.006 53.2264 680.892 55.7473 683.291 59.091L721.192 111.96ZM691.677 88.2914L672.613 60.9641L653.565 88.2914H691.677Z" fill="var(--fill-0, black)"/>
<path id="Vector_59" d="M810.3 111.96H800.251V94.3659H744.126V111.96H734.076V54.1715H794.596C803.279 54.1715 810.3 61.1914 810.3 69.8745V78.6628C810.3 83.477 807.778 87.2409 803.909 89.3417C807.778 91.4424 810.3 95.2062 810.3 100.021V111.96ZM800.251 84.3173V64.22H744.126V84.3173H800.251Z" fill="var(--fill-0, black)"/>
<path id="Vector_60" d="M899.407 64.22H866.74V111.96H856.691V64.22H824.024V54.1715H899.407V64.22Z" fill="var(--fill-0, black)"/>
<path id="Vector_61" d="M989.963 54.1542V101.578C989.963 107.864 984.941 112.887 978.657 112.887C975.524 112.887 972.691 111.628 970.589 109.544L923.162 61.3843V111.96H913.114V64.5354C913.114 58.2506 918.138 53.2264 924.423 53.2264C927.556 53.2264 930.393 54.4868 932.493 56.57L979.919 104.73V54.1542H989.963Z" fill="var(--fill-0, black)"/>
<path id="Vector_62" d="M1084.94 111.96H1024.42C1015.74 111.96 1008.72 104.939 1008.72 96.2565V69.8745C1008.72 61.1914 1015.74 54.1715 1024.42 54.1715H1084.94V64.22H1018.76V78.0326H1084.94V88.0811H1018.76V101.894H1084.94V111.96Z" fill="var(--fill-0, black)"/>
<path id="Vector_63" d="M1179.89 111.96H1169.85V94.3659H1113.72V111.96H1103.67V54.1715H1164.19C1172.87 54.1715 1179.89 61.1914 1179.89 69.8745V78.6628C1179.89 83.477 1177.37 87.2409 1173.5 89.3417C1177.37 91.4424 1179.89 95.2062 1179.89 100.021V111.96ZM1169.85 84.3173V64.22H1113.72V84.3173H1169.85Z" fill="var(--fill-0, black)"/>
<path id="Vector_64" d="M1274.66 96.2565C1274.66 104.939 1267.63 111.96 1258.95 111.96H1198.43V101.911H1264.6V88.0987H1211.42C1202.74 88.0987 1195.72 81.0786 1195.72 72.3955V69.8745C1195.72 61.1914 1202.74 54.1715 1211.42 54.1715H1271.94V64.22H1205.77V78.0326H1258.95C1267.63 78.0326 1274.66 85.0525 1274.66 93.7357V96.2565Z" fill="var(--fill-0, black)"/>
<path id="Vector_65" d="M431.217 157.634L403.067 142.211L374.916 157.634C371.502 159.507 367.774 155.708 369.717 152.329L401.001 97.9553C401.928 96.3619 404.222 96.3619 405.149 97.9553L436.433 152.329C438.376 155.708 434.648 159.507 431.234 157.634H431.217Z" fill="var(--fill-0, black)"/>
<path id="Vector_66" d="M339.273 131.742L345.243 100.195L321.873 78.1899C319.036 75.5114 321.504 70.8024 325.321 71.6076L386.698 84.5622C388.501 84.9474 389.219 87.1357 387.976 88.5012L345.925 135.05C343.317 137.939 338.539 135.575 339.273 131.742Z" fill="var(--fill-0, black)"/>
<path id="Vector_67" d="M335.493 36.2977L367.337 32.2362L381.043 3.21085C382.707 -0.307914 387.959 0.567386 388.379 4.45379L395.031 66.8287C395.224 68.6668 393.368 70.0149 391.67 69.2621L334.407 43.6679C330.853 42.0748 331.624 36.8054 335.493 36.3152V36.2977Z" fill="var(--fill-0, black)"/>
<path id="Vector_68" d="M425.09 3.19315L438.797 32.2186L470.641 36.2801C474.51 36.7703 475.28 42.0396 471.727 43.6326L414.463 69.2268C412.783 69.9796 410.909 68.6318 411.102 66.7936L417.755 4.41857C418.175 0.532165 423.409 -0.343135 425.09 3.17563V3.19315Z" fill="var(--fill-0, black)"/>
<path id="Vector_69" d="M484.26 78.1899L460.89 100.195L466.86 131.742C467.577 135.575 462.816 137.939 460.208 135.05L418.158 88.5012C416.914 87.1357 417.632 84.9474 419.435 84.5622L480.812 71.6076C484.629 70.8024 487.097 75.5114 484.26 78.1899Z" fill="var(--fill-0, black)"/>
</g>
</mask>
<g mask="url(#mask2_0_4)">
<path id="Vector_70" d="M256.224 96.2563C256.224 104.939 249.203 111.959 240.521 111.959H195.704C187.021 111.959 180.001 104.939 180.001 96.2563V69.8744C180.001 61.1912 187.021 54.1712 195.704 54.1712H256.224V64.2198H190.049V101.911H246.175V88.0984H216.765V78.0498H256.241V96.2739L256.224 96.2563Z" fill="var(--fill-0, #6EC1E4)" stroke="var(--stroke-1, #CFDDF6)" stroke-opacity="0.5" stroke-width="1.9277"/>
</g>
</g>
<g id="Mask group_4">
<mask id="mask3_0_4" style="mask-type:luminance" maskUnits="userSpaceOnUse" x="0" y="0" width="1277" height="160">
<g id="Group_5" opacity="0.2">
<path id="Vector_71" d="M1276.14 0H0V159.999H1276.14V0Z" fill="var(--fill-0, white)"/>
<path id="Vector_72" d="M77.1863 96.2563C77.1863 104.939 70.1663 111.959 61.4832 111.959H16.667C7.98393 111.959 0.963852 104.939 0.963852 96.2563V69.8744C0.963852 61.1912 7.98393 54.1712 16.667 54.1712H61.4832C70.1663 54.1712 77.1863 61.1912 77.1863 69.8744V96.2563ZM67.1378 101.911V64.2198H11.0126V101.911H67.1378Z" fill="var(--fill-0, black)"/>
<path id="Vector_73" d="M166.293 64.2025H133.627V111.942H123.578V64.2025H90.9113V54.1539H166.293V64.2025Z" fill="var(--fill-0, black)"/>
<path id="Vector_74" d="M256.224 96.2563C256.224 104.939 249.203 111.959 240.521 111.959H195.704C187.021 111.959 180.001 104.939 180.001 96.2563V69.8744C180.001 61.1912 187.021 54.1712 195.704 54.1712H256.224V64.2198H190.049V101.911H246.175V88.0984H216.765V78.0498H256.241V96.2739L256.224 96.2563Z" fill="var(--fill-0, black)"/>
<path id="Vector_75" d="M626.115 78.6628C626.115 87.3459 619.096 94.3659 610.412 94.3659H559.941V111.96H549.893V54.1715H610.412C619.096 54.1715 626.115 61.1914 626.115 69.8745V78.6628ZM616.067 84.3173V64.22H559.941V84.3173H616.067Z" fill="var(--fill-0, black)"/>
<path id="Vector_76" d="M721.192 111.96H708.518L698.889 98.3572H646.335L636.811 111.96H624.138L661.933 59.091C664.349 55.7473 668.218 53.2264 672.613 53.2264C677.006 53.2264 680.892 55.7473 683.291 59.091L721.192 111.96ZM691.677 88.2914L672.613 60.9641L653.565 88.2914H691.677Z" fill="var(--fill-0, black)"/>
<path id="Vector_77" d="M810.3 111.96H800.251V94.3659H744.126V111.96H734.076V54.1715H794.596C803.279 54.1715 810.3 61.1914 810.3 69.8745V78.6628C810.3 83.477 807.778 87.2409 803.909 89.3417C807.778 91.4424 810.3 95.2062 810.3 100.021V111.96ZM800.251 84.3173V64.22H744.126V84.3173H800.251Z" fill="var(--fill-0, black)"/>
<path id="Vector_78" d="M899.407 64.22H866.74V111.96H856.691V64.22H824.024V54.1715H899.407V64.22Z" fill="var(--fill-0, black)"/>
<path id="Vector_79" d="M989.963 54.1542V101.578C989.963 107.864 984.941 112.887 978.657 112.887C975.524 112.887 972.691 111.628 970.589 109.544L923.162 61.3843V111.96H913.114V64.5354C913.114 58.2506 918.138 53.2264 924.423 53.2264C927.556 53.2264 930.393 54.4868 932.493 56.57L979.919 104.73V54.1542H989.963Z" fill="var(--fill-0, black)"/>
<path id="Vector_80" d="M1084.94 111.96H1024.42C1015.74 111.96 1008.72 104.939 1008.72 96.2565V69.8745C1008.72 61.1914 1015.74 54.1715 1024.42 54.1715H1084.94V64.22H1018.76V78.0326H1084.94V88.0811H1018.76V101.894H1084.94V111.96Z" fill="var(--fill-0, black)"/>
<path id="Vector_81" d="M1179.89 111.96H1169.85V94.3659H1113.72V111.96H1103.67V54.1715H1164.19C1172.87 54.1715 1179.89 61.1914 1179.89 69.8745V78.6628C1179.89 83.477 1177.37 87.2409 1173.5 89.3417C1177.37 91.4424 1179.89 95.2062 1179.89 100.021V111.96ZM1169.85 84.3173V64.22H1113.72V84.3173H1169.85Z" fill="var(--fill-0, black)"/>
<path id="Vector_82" d="M1274.66 96.2565C1274.66 104.939 1267.63 111.96 1258.95 111.96H1198.43V101.911H1264.6V88.0987H1211.42C1202.74 88.0987 1195.72 81.0786 1195.72 72.3955V69.8745C1195.72 61.1914 1202.74 54.1715 1211.42 54.1715H1271.94V64.22H1205.77V78.0326H1258.95C1267.63 78.0326 1274.66 85.0525 1274.66 93.7357V96.2565Z" fill="var(--fill-0, black)"/>
<path id="Vector_83" d="M431.217 157.634L403.067 142.211L374.916 157.634C371.502 159.507 367.774 155.708 369.717 152.329L401.001 97.9553C401.928 96.3619 404.222 96.3619 405.149 97.9553L436.433 152.329C438.376 155.708 434.648 159.507 431.234 157.634H431.217Z" fill="var(--fill-0, black)"/>
<path id="Vector_84" d="M339.273 131.742L345.243 100.195L321.873 78.1899C319.036 75.5114 321.504 70.8024 325.321 71.6076L386.698 84.5622C388.501 84.9474 389.219 87.1357 387.976 88.5012L345.925 135.05C343.317 137.939 338.539 135.575 339.273 131.742Z" fill="var(--fill-0, black)"/>
<path id="Vector_85" d="M335.493 36.2977L367.337 32.2362L381.043 3.21085C382.707 -0.307914 387.959 0.567386 388.379 4.45379L395.031 66.8287C395.224 68.6668 393.368 70.0149 391.67 69.2621L334.407 43.6679C330.853 42.0748 331.624 36.8054 335.493 36.3152V36.2977Z" fill="var(--fill-0, black)"/>
<path id="Vector_86" d="M425.09 3.19315L438.797 32.2186L470.641 36.2801C474.51 36.7703 475.28 42.0396 471.727 43.6326L414.463 69.2268C412.783 69.9796 410.909 68.6318 411.102 66.7936L417.755 4.41857C418.175 0.532165 423.409 -0.343135 425.09 3.17563V3.19315Z" fill="var(--fill-0, black)"/>
<path id="Vector_87" d="M484.26 78.1899L460.89 100.195L466.86 131.742C467.577 135.575 462.816 137.939 460.208 135.05L418.158 88.5012C416.914 87.1357 417.632 84.9474 419.435 84.5622L480.812 71.6076C484.629 70.8024 487.097 75.5114 484.26 78.1899Z" fill="var(--fill-0, black)"/>
</g>
</mask>
<g mask="url(#mask3_0_4)">
<path id="Vector_88" d="M626.115 78.6628C626.115 87.3459 619.096 94.3659 610.412 94.3659H559.941V111.96H549.893V54.1715H610.412C619.096 54.1715 626.115 61.1914 626.115 69.8745V78.6628ZM616.067 84.3173V64.22H559.941V84.3173H616.067Z" fill="var(--fill-0, #6EC1E4)" stroke="var(--stroke-1, #CFDDF6)" stroke-opacity="0.5" stroke-width="1.9277"/>
</g>
</g>
<g id="Mask group_5">
<mask id="mask4_0_4" style="mask-type:luminance" maskUnits="userSpaceOnUse" x="0" y="0" width="1277" height="160">
<g id="Group_6" opacity="0.2">
<path id="Vector_89" d="M1276.14 0H0V159.999H1276.14V0Z" fill="var(--fill-0, white)"/>
<path id="Vector_90" d="M77.1863 96.2563C77.1863 104.939 70.1663 111.959 61.4832 111.959H16.667C7.98393 111.959 0.963852 104.939 0.963852 96.2563V69.8744C0.963852 61.1912 7.98393 54.1712 16.667 54.1712H61.4832C70.1663 54.1712 77.1863 61.1912 77.1863 69.8744V96.2563ZM67.1378 101.911V64.2198H11.0126V101.911H67.1378Z" fill="var(--fill-0, black)"/>
<path id="Vector_91" d="M166.293 64.2025H133.627V111.942H123.578V64.2025H90.9113V54.1539H166.293V64.2025Z" fill="var(--fill-0, black)"/>
<path id="Vector_92" d="M256.224 96.2563C256.224 104.939 249.203 111.959 240.521 111.959H195.704C187.021 111.959 180.001 104.939 180.001 96.2563V69.8744C180.001 61.1912 187.021 54.1712 195.704 54.1712H256.224V64.2198H190.049V101.911H246.175V88.0984H216.765V78.0498H256.241V96.2739L256.224 96.2563Z" fill="var(--fill-0, black)"/>
<path id="Vector_93" d="M626.115 78.6628C626.115 87.3459 619.096 94.3659 610.412 94.3659H559.941V111.96H549.893V54.1715H610.412C619.096 54.1715 626.115 61.1914 626.115 69.8745V78.6628ZM616.067 84.3173V64.22H559.941V84.3173H616.067Z" fill="var(--fill-0, black)"/>
<path id="Vector_94" d="M721.192 111.96H708.518L698.889 98.3572H646.335L636.811 111.96H624.138L661.933 59.091C664.349 55.7473 668.218 53.2264 672.613 53.2264C677.006 53.2264 680.892 55.7473 683.291 59.091L721.192 111.96ZM691.677 88.2914L672.613 60.9641L653.565 88.2914H691.677Z" fill="var(--fill-0, black)"/>
<path id="Vector_95" d="M810.3 111.96H800.251V94.3659H744.126V111.96H734.076V54.1715H794.596C803.279 54.1715 810.3 61.1914 810.3 69.8745V78.6628C810.3 83.477 807.778 87.2409 803.909 89.3417C807.778 91.4424 810.3 95.2062 810.3 100.021V111.96ZM800.251 84.3173V64.22H744.126V84.3173H800.251Z" fill="var(--fill-0, black)"/>
<path id="Vector_96" d="M899.407 64.22H866.74V111.96H856.691V64.22H824.024V54.1715H899.407V64.22Z" fill="var(--fill-0, black)"/>
<path id="Vector_97" d="M989.963 54.1542V101.578C989.963 107.864 984.941 112.887 978.657 112.887C975.524 112.887 972.691 111.628 970.589 109.544L923.162 61.3843V111.96H913.114V64.5354C913.114 58.2506 918.138 53.2264 924.423 53.2264C927.556 53.2264 930.393 54.4868 932.493 56.57L979.919 104.73V54.1542H989.963Z" fill="var(--fill-0, black)"/>
<path id="Vector_98" d="M1084.94 111.96H1024.42C1015.74 111.96 1008.72 104.939 1008.72 96.2565V69.8745C1008.72 61.1914 1015.74 54.1715 1024.42 54.1715H1084.94V64.22H1018.76V78.0326H1084.94V88.0811H1018.76V101.894H1084.94V111.96Z" fill="var(--fill-0, black)"/>
<path id="Vector_99" d="M1179.89 111.96H1169.85V94.3659H1113.72V111.96H1103.67V54.1715H1164.19C1172.87 54.1715 1179.89 61.1914 1179.89 69.8745V78.6628C1179.89 83.477 1177.37 87.2409 1173.5 89.3417C1177.37 91.4424 1179.89 95.2062 1179.89 100.021V111.96ZM1169.85 84.3173V64.22H1113.72V84.3173H1169.85Z" fill="var(--fill-0, black)"/>
<path id="Vector_100" d="M1274.66 96.2565C1274.66 104.939 1267.63 111.96 1258.95 111.96H1198.43V101.911H1264.6V88.0987H1211.42C1202.74 88.0987 1195.72 81.0786 1195.72 72.3955V69.8745C1195.72 61.1914 1202.74 54.1715 1211.42 54.1715H1271.94V64.22H1205.77V78.0326H1258.95C1267.63 78.0326 1274.66 85.0525 1274.66 93.7357V96.2565Z" fill="var(--fill-0, black)"/>
<path id="Vector_101" d="M431.217 157.634L403.067 142.211L374.916 157.634C371.502 159.507 367.774 155.708 369.717 152.329L401.001 97.9553C401.928 96.3619 404.222 96.3619 405.149 97.9553L436.433 152.329C438.376 155.708 434.648 159.507 431.234 157.634H431.217Z" fill="var(--fill-0, black)"/>
<path id="Vector_102" d="M339.273 131.742L345.243 100.195L321.873 78.1899C319.036 75.5114 321.504 70.8024 325.321 71.6076L386.698 84.5622C388.501 84.9474 389.219 87.1357 387.976 88.5012L345.925 135.05C343.317 137.939 338.539 135.575 339.273 131.742Z" fill="var(--fill-0, black)"/>
<path id="Vector_103" d="M335.493 36.2977L367.337 32.2362L381.043 3.21085C382.707 -0.307914 387.959 0.567386 388.379 4.45379L395.031 66.8287C395.224 68.6668 393.368 70.0149 391.67 69.2621L334.407 43.6679C330.853 42.0748 331.624 36.8054 335.493 36.3152V36.2977Z" fill="var(--fill-0, black)"/>
<path id="Vector_104" d="M425.09 3.19315L438.797 32.2186L470.641 36.2801C474.51 36.7703 475.28 42.0396 471.727 43.6326L414.463 69.2268C412.783 69.9796 410.909 68.6318 411.102 66.7936L417.755 4.41857C418.175 0.532165 423.409 -0.343135 425.09 3.17563V3.19315Z" fill="var(--fill-0, black)"/>
<path id="Vector_105" d="M484.26 78.1899L460.89 100.195L466.86 131.742C467.577 135.575 462.816 137.939 460.208 135.05L418.158 88.5012C416.914 87.1357 417.632 84.9474 419.435 84.5622L480.812 71.6076C484.629 70.8024 487.097 75.5114 484.26 78.1899Z" fill="var(--fill-0, black)"/>
</g>
</mask>
<g mask="url(#mask4_0_4)">
<path id="Vector_106" d="M721.192 111.96H708.518L698.889 98.3572H646.335L636.811 111.96H624.138L661.933 59.091C664.349 55.7473 668.218 53.2264 672.613 53.2264C677.006 53.2264 680.892 55.7473 683.291 59.091L721.192 111.96ZM691.677 88.2914L672.613 60.9641L653.565 88.2914H691.677Z" fill="var(--fill-0, #6EC1E4)" stroke="var(--stroke-1, #CFDDF6)" stroke-opacity="0.5" stroke-width="1.9277"/>
</g>
</g>
<g id="Mask group_6">
<mask id="mask5_0_4" style="mask-type:luminance" maskUnits="userSpaceOnUse" x="0" y="0" width="1277" height="160">
<g id="Group_7" opacity="0.2">
<path id="Vector_107" d="M1276.14 0H0V159.999H1276.14V0Z" fill="var(--fill-0, white)"/>
<path id="Vector_108" d="M77.1863 96.2563C77.1863 104.939 70.1663 111.959 61.4832 111.959H16.667C7.98393 111.959 0.963852 104.939 0.963852 96.2563V69.8744C0.963852 61.1912 7.98393 54.1712 16.667 54.1712H61.4832C70.1663 54.1712 77.1863 61.1912 77.1863 69.8744V96.2563ZM67.1378 101.911V64.2198H11.0126V101.911H67.1378Z" fill="var(--fill-0, black)"/>
<path id="Vector_109" d="M166.293 64.2025H133.627V111.942H123.578V64.2025H90.9113V54.1539H166.293V64.2025Z" fill="var(--fill-0, black)"/>
<path id="Vector_110" d="M256.224 96.2563C256.224 104.939 249.203 111.959 240.521 111.959H195.704C187.021 111.959 180.001 104.939 180.001 96.2563V69.8744C180.001 61.1912 187.021 54.1712 195.704 54.1712H256.224V64.2198H190.049V101.911H246.175V88.0984H216.765V78.0498H256.241V96.2739L256.224 96.2563Z" fill="var(--fill-0, black)"/>
<path id="Vector_111" d="M626.115 78.6628C626.115 87.3459 619.096 94.3659 610.412 94.3659H559.941V111.96H549.893V54.1715H610.412C619.096 54.1715 626.115 61.1914 626.115 69.8745V78.6628ZM616.067 84.3173V64.22H559.941V84.3173H616.067Z" fill="var(--fill-0, black)"/>
<path id="Vector_112" d="M721.192 111.96H708.518L698.889 98.3572H646.335L636.811 111.96H624.138L661.933 59.091C664.349 55.7473 668.218 53.2264 672.613 53.2264C677.006 53.2264 680.892 55.7473 683.291 59.091L721.192 111.96ZM691.677 88.2914L672.613 60.9641L653.565 88.2914H691.677Z" fill="var(--fill-0, black)"/>
<path id="Vector_113" d="M810.3 111.96H800.251V94.3659H744.126V111.96H734.076V54.1715H794.596C803.279 54.1715 810.3 61.1914 810.3 69.8745V78.6628C810.3 83.477 807.778 87.2409 803.909 89.3417C807.778 91.4424 810.3 95.2062 810.3 100.021V111.96ZM800.251 84.3173V64.22H744.126V84.3173H800.251Z" fill="var(--fill-0, black)"/>
<path id="Vector_114" d="M899.407 64.22H866.74V111.96H856.691V64.22H824.024V54.1715H899.407V64.22Z" fill="var(--fill-0, black)"/>
<path id="Vector_115" d="M989.963 54.1542V101.578C989.963 107.864 984.941 112.887 978.657 112.887C975.524 112.887 972.691 111.628 970.589 109.544L923.162 61.3843V111.96H913.114V64.5354C913.114 58.2506 918.138 53.2264 924.423 53.2264C927.556 53.2264 930.393 54.4868 932.493 56.57L979.919 104.73V54.1542H989.963Z" fill="var(--fill-0, black)"/>
<path id="Vector_116" d="M1084.94 111.96H1024.42C1015.74 111.96 1008.72 104.939 1008.72 96.2565V69.8745C1008.72 61.1914 1015.74 54.1715 1024.42 54.1715H1084.94V64.22H1018.76V78.0326H1084.94V88.0811H1018.76V101.894H1084.94V111.96Z" fill="var(--fill-0, black)"/>
<path id="Vector_117" d="M1179.89 111.96H1169.85V94.3659H1113.72V111.96H1103.67V54.1715H1164.19C1172.87 54.1715 1179.89 61.1914 1179.89 69.8745V78.6628C1179.89 83.477 1177.37 87.2409 1173.5 89.3417C1177.37 91.4424 1179.89 95.2062 1179.89 100.021V111.96ZM1169.85 84.3173V64.22H1113.72V84.3173H1169.85Z" fill="var(--fill-0, black)"/>
<path id="Vector_118" d="M1274.66 96.2565C1274.66 104.939 1267.63 111.96 1258.95 111.96H1198.43V101.911H1264.6V88.0987H1211.42C1202.74 88.0987 1195.72 81.0786 1195.72 72.3955V69.8745C1195.72 61.1914 1202.74 54.1715 1211.42 54.1715H1271.94V64.22H1205.77V78.0326H1258.95C1267.63 78.0326 1274.66 85.0525 1274.66 93.7357V96.2565Z" fill="var(--fill-0, black)"/>
<path id="Vector_119" d="M431.217 157.634L403.067 142.211L374.916 157.634C371.502 159.507 367.774 155.708 369.717 152.329L401.001 97.9553C401.928 96.3619 404.222 96.3619 405.149 97.9553L436.433 152.329C438.376 155.708 434.648 159.507 431.234 157.634H431.217Z" fill="var(--fill-0, black)"/>
<path id="Vector_120" d="M339.273 131.742L345.243 100.195L321.873 78.1899C319.036 75.5114 321.504 70.8024 325.321 71.6076L386.698 84.5622C388.501 84.9474 389.219 87.1357 387.976 88.5012L345.925 135.05C343.317 137.939 338.539 135.575 339.273 131.742Z" fill="var(--fill-0, black)"/>
<path id="Vector_121" d="M335.493 36.2977L367.337 32.2362L381.043 3.21085C382.707 -0.307914 387.959 0.567386 388.379 4.45379L395.031 66.8287C395.224 68.6668 393.368 70.0149 391.67 69.2621L334.407 43.6679C330.853 42.0748 331.624 36.8054 335.493 36.3152V36.2977Z" fill="var(--fill-0, black)"/>
<path id="Vector_122" d="M425.09 3.19315L438.797 32.2186L470.641 36.2801C474.51 36.7703 475.28 42.0396 471.727 43.6326L414.463 69.2268C412.783 69.9796 410.909 68.6318 411.102 66.7936L417.755 4.41857C418.175 0.532165 423.409 -0.343135 425.09 3.17563V3.19315Z" fill="var(--fill-0, black)"/>
<path id="Vector_123" d="M484.26 78.1899L460.89 100.195L466.86 131.742C467.577 135.575 462.816 137.939 460.208 135.05L418.158 88.5012C416.914 87.1357 417.632 84.9474 419.435 84.5622L480.812 71.6076C484.629 70.8024 487.097 75.5114 484.26 78.1899Z" fill="var(--fill-0, black)"/>
</g>
</mask>
<g mask="url(#mask5_0_4)">
<path id="Vector_124" d="M810.3 111.96H800.251V94.3659H744.126V111.96H734.076V54.1715H794.596C803.279 54.1715 810.3 61.1914 810.3 69.8745V78.6628C810.3 83.477 807.778 87.2409 803.909 89.3417C807.778 91.4424 810.3 95.2062 810.3 100.021V111.96ZM800.251 84.3173V64.22H744.126V84.3173H800.251Z" fill="var(--fill-0, #6EC1E4)" stroke="var(--stroke-1, #CFDDF6)" stroke-opacity="0.5" stroke-width="1.9277"/>
</g>
</g>
<g id="Mask group_7">
<mask id="mask6_0_4" style="mask-type:luminance" maskUnits="userSpaceOnUse" x="0" y="0" width="1277" height="160">
<g id="Group_8" opacity="0.2">
<path id="Vector_125" d="M1276.14 0H0V159.999H1276.14V0Z" fill="var(--fill-0, white)"/>
<path id="Vector_126" d="M77.1863 96.2563C77.1863 104.939 70.1663 111.959 61.4832 111.959H16.667C7.98393 111.959 0.963852 104.939 0.963852 96.2563V69.8744C0.963852 61.1912 7.98393 54.1712 16.667 54.1712H61.4832C70.1663 54.1712 77.1863 61.1912 77.1863 69.8744V96.2563ZM67.1378 101.911V64.2198H11.0126V101.911H67.1378Z" fill="var(--fill-0, black)"/>
<path id="Vector_127" d="M166.293 64.2025H133.627V111.942H123.578V64.2025H90.9113V54.1539H166.293V64.2025Z" fill="var(--fill-0, black)"/>
<path id="Vector_128" d="M256.224 96.2563C256.224 104.939 249.203 111.959 240.521 111.959H195.704C187.021 111.959 180.001 104.939 180.001 96.2563V69.8744C180.001 61.1912 187.021 54.1712 195.704 54.1712H256.224V64.2198H190.049V101.911H246.175V88.0984H216.765V78.0498H256.241V96.2739L256.224 96.2563Z" fill="var(--fill-0, black)"/>
<path id="Vector_129" d="M626.115 78.6628C626.115 87.3459 619.096 94.3659 610.412 94.3659H559.941V111.96H549.893V54.1715H610.412C619.096 54.1715 626.115 61.1914 626.115 69.8745V78.6628ZM616.067 84.3173V64.22H559.941V84.3173H616.067Z" fill="var(--fill-0, black)"/>
<path id="Vector_130" d="M721.192 111.96H708.518L698.889 98.3572H646.335L636.811 111.96H624.138L661.933 59.091C664.349 55.7473 668.218 53.2264 672.613 53.2264C677.006 53.2264 680.892 55.7473 683.291 59.091L721.192 111.96ZM691.677 88.2914L672.613 60.9641L653.565 88.2914H691.677Z" fill="var(--fill-0, black)"/>
<path id="Vector_131" d="M810.3 111.96H800.251V94.3659H744.126V111.96H734.076V54.1715H794.596C803.279 54.1715 810.3 61.1914 810.3 69.8745V78.6628C810.3 83.477 807.778 87.2409 803.909 89.3417C807.778 91.4424 810.3 95.2062 810.3 100.021V111.96ZM800.251 84.3173V64.22H744.126V84.3173H800.251Z" fill="var(--fill-0, black)"/>
<path id="Vector_132" d="M899.407 64.22H866.74V111.96H856.691V64.22H824.024V54.1715H899.407V64.22Z" fill="var(--fill-0, black)"/>
<path id="Vector_133" d="M989.963 54.1542V101.578C989.963 107.864 984.941 112.887 978.657 112.887C975.524 112.887 972.691 111.628 970.589 109.544L923.162 61.3843V111.96H913.114V64.5354C913.114 58.2506 918.138 53.2264 924.423 53.2264C927.556 53.2264 930.393 54.4868 932.493 56.57L979.919 104.73V54.1542H989.963Z" fill="var(--fill-0, black)"/>
<path id="Vector_134" d="M1084.94 111.96H1024.42C1015.74 111.96 1008.72 104.939 1008.72 96.2565V69.8745C1008.72 61.1914 1015.74 54.1715 1024.42 54.1715H1084.94V64.22H1018.76V78.0326H1084.94V88.0811H1018.76V101.894H1084.94V111.96Z" fill="var(--fill-0, black)"/>
<path id="Vector_135" d="M1179.89 111.96H1169.85V94.3659H1113.72V111.96H1103.67V54.1715H1164.19C1172.87 54.1715 1179.89 61.1914 1179.89 69.8745V78.6628C1179.89 83.477 1177.37 87.2409 1173.5 89.3417C1177.37 91.4424 1179.89 95.2062 1179.89 100.021V111.96ZM1169.85 84.3173V64.22H1113.72V84.3173H1169.85Z" fill="var(--fill-0, black)"/>
<path id="Vector_136" d="M1274.66 96.2565C1274.66 104.939 1267.63 111.96 1258.95 111.96H1198.43V101.911H1264.6V88.0987H1211.42C1202.74 88.0987 1195.72 81.0786 1195.72 72.3955V69.8745C1195.72 61.1914 1202.74 54.1715 1211.42 54.1715H1271.94V64.22H1205.77V78.0326H1258.95C1267.63 78.0326 1274.66 85.0525 1274.66 93.7357V96.2565Z" fill="var(--fill-0, black)"/>
<path id="Vector_137" d="M431.217 157.634L403.067 142.211L374.916 157.634C371.502 159.507 367.774 155.708 369.717 152.329L401.001 97.9553C401.928 96.3619 404.222 96.3619 405.149 97.9553L436.433 152.329C438.376 155.708 434.648 159.507 431.234 157.634H431.217Z" fill="var(--fill-0, black)"/>
<path id="Vector_138" d="M339.273 131.742L345.243 100.195L321.873 78.1899C319.036 75.5114 321.504 70.8024 325.321 71.6076L386.698 84.5622C388.501 84.9474 389.219 87.1357 387.976 88.5012L345.925 135.05C343.317 137.939 338.539 135.575 339.273 131.742Z" fill="var(--fill-0, black)"/>
<path id="Vector_139" d="M335.493 36.2977L367.337 32.2362L381.043 3.21085C382.707 -0.307914 387.959 0.567386 388.379 4.45379L395.031 66.8287C395.224 68.6668 393.368 70.0149 391.67 69.2621L334.407 43.6679C330.853 42.0748 331.624 36.8054 335.493 36.3152V36.2977Z" fill="var(--fill-0, black)"/>
<path id="Vector_140" d="M425.09 3.19315L438.797 32.2186L470.641 36.2801C474.51 36.7703 475.28 42.0396 471.727 43.6326L414.463 69.2268C412.783 69.9796 410.909 68.6318 411.102 66.7936L417.755 4.41857C418.175 0.532165 423.409 -0.343135 425.09 3.17563V3.19315Z" fill="var(--fill-0, black)"/>
<path id="Vector_141" d="M484.26 78.1899L460.89 100.195L466.86 131.742C467.577 135.575 462.816 137.939 460.208 135.05L418.158 88.5012C416.914 87.1357 417.632 84.9474 419.435 84.5622L480.812 71.6076C484.629 70.8024 487.097 75.5114 484.26 78.1899Z" fill="var(--fill-0, black)"/>
</g>
</mask>
<g mask="url(#mask6_0_4)">
<path id="Vector_142" d="M899.407 64.22H866.74V111.96H856.691V64.22H824.024V54.1715H899.407V64.22Z" fill="var(--fill-0, #6EC1E4)" stroke="var(--stroke-1, #CFDDF6)" stroke-opacity="0.5" stroke-width="1.9277"/>
</g>
</g>
<g id="Mask group_8">
<mask id="mask7_0_4" style="mask-type:luminance" maskUnits="userSpaceOnUse" x="0" y="0" width="1277" height="160">
<g id="Group_9" opacity="0.2">
<path id="Vector_143" d="M1276.14 0H0V159.999H1276.14V0Z" fill="var(--fill-0, white)"/>
<path id="Vector_144" d="M77.1863 96.2563C77.1863 104.939 70.1663 111.959 61.4832 111.959H16.667C7.98393 111.959 0.963852 104.939 0.963852 96.2563V69.8744C0.963852 61.1912 7.98393 54.1712 16.667 54.1712H61.4832C70.1663 54.1712 77.1863 61.1912 77.1863 69.8744V96.2563ZM67.1378 101.911V64.2198H11.0126V101.911H67.1378Z" fill="var(--fill-0, black)"/>
<path id="Vector_145" d="M166.293 64.2025H133.627V111.942H123.578V64.2025H90.9113V54.1539H166.293V64.2025Z" fill="var(--fill-0, black)"/>
<path id="Vector_146" d="M256.224 96.2563C256.224 104.939 249.203 111.959 240.521 111.959H195.704C187.021 111.959 180.001 104.939 180.001 96.2563V69.8744C180.001 61.1912 187.021 54.1712 195.704 54.1712H256.224V64.2198H190.049V101.911H246.175V88.0984H216.765V78.0498H256.241V96.2739L256.224 96.2563Z" fill="var(--fill-0, black)"/>
<path id="Vector_147" d="M626.115 78.6628C626.115 87.3459 619.096 94.3659 610.412 94.3659H559.941V111.96H549.893V54.1715H610.412C619.096 54.1715 626.115 61.1914 626.115 69.8745V78.6628ZM616.067 84.3173V64.22H559.941V84.3173H616.067Z" fill="var(--fill-0, black)"/>
<path id="Vector_148" d="M721.192 111.96H708.518L698.889 98.3572H646.335L636.811 111.96H624.138L661.933 59.091C664.349 55.7473 668.218 53.2264 672.613 53.2264C677.006 53.2264 680.892 55.7473 683.291 59.091L721.192 111.96ZM691.677 88.2914L672.613 60.9641L653.565 88.2914H691.677Z" fill="var(--fill-0, black)"/>
<path id="Vector_149" d="M810.3 111.96H800.251V94.3659H744.126V111.96H734.076V54.1715H794.596C803.279 54.1715 810.3 61.1914 810.3 69.8745V78.6628C810.3 83.477 807.778 87.2409 803.909 89.3417C807.778 91.4424 810.3 95.2062 810.3 100.021V111.96ZM800.251 84.3173V64.22H744.126V84.3173H800.251Z" fill="var(--fill-0, black)"/>
<path id="Vector_150" d="M899.407 64.22H866.74V111.96H856.691V64.22H824.024V54.1715H899.407V64.22Z" fill="var(--fill-0, black)"/>
<path id="Vector_151" d="M989.963 54.1542V101.578C989.963 107.864 984.941 112.887 978.657 112.887C975.524 112.887 972.691 111.628 970.589 109.544L923.162 61.3843V111.96H913.114V64.5354C913.114 58.2506 918.138 53.2264 924.423 53.2264C927.556 53.2264 930.393 54.4868 932.493 56.57L979.919 104.73V54.1542H989.963Z" fill="var(--fill-0, black)"/>
<path id="Vector_152" d="M1084.94 111.96H1024.42C1015.74 111.96 1008.72 104.939 1008.72 96.2565V69.8745C1008.72 61.1914 1015.74 54.1715 1024.42 54.1715H1084.94V64.22H1018.76V78.0326H1084.94V88.0811H1018.76V101.894H1084.94V111.96Z" fill="var(--fill-0, black)"/>
<path id="Vector_153" d="M1179.89 111.96H1169.85V94.3659H1113.72V111.96H1103.67V54.1715H1164.19C1172.87 54.1715 1179.89 61.1914 1179.89 69.8745V78.6628C1179.89 83.477 1177.37 87.2409 1173.5 89.3417C1177.37 91.4424 1179.89 95.2062 1179.89 100.021V111.96ZM1169.85 84.3173V64.22H1113.72V84.3173H1169.85Z" fill="var(--fill-0, black)"/>
<path id="Vector_154" d="M1274.66 96.2565C1274.66 104.939 1267.63 111.96 1258.95 111.96H1198.43V101.911H1264.6V88.0987H1211.42C1202.74 88.0987 1195.72 81.0786 1195.72 72.3955V69.8745C1195.72 61.1914 1202.74 54.1715 1211.42 54.1715H1271.94V64.22H1205.77V78.0326H1258.95C1267.63 78.0326 1274.66 85.0525 1274.66 93.7357V96.2565Z" fill="var(--fill-0, black)"/>
<path id="Vector_155" d="M431.217 157.634L403.067 142.211L374.916 157.634C371.502 159.507 367.774 155.708 369.717 152.329L401.001 97.9553C401.928 96.3619 404.222 96.3619 405.149 97.9553L436.433 152.329C438.376 155.708 434.648 159.507 431.234 157.634H431.217Z" fill="var(--fill-0, black)"/>
<path id="Vector_156" d="M339.273 131.742L345.243 100.195L321.873 78.1899C319.036 75.5114 321.504 70.8024 325.321 71.6076L386.698 84.5622C388.501 84.9474 389.219 87.1357 387.976 88.5012L345.925 135.05C343.317 137.939 338.539 135.575 339.273 131.742Z" fill="var(--fill-0, black)"/>
<path id="Vector_157" d="M335.493 36.2977L367.337 32.2362L381.043 3.21085C382.707 -0.307914 387.959 0.567386 388.379 4.45379L395.031 66.8287C395.224 68.6668 393.368 70.0149 391.67 69.2621L334.407 43.6679C330.853 42.0748 331.624 36.8054 335.493 36.3152V36.2977Z" fill="var(--fill-0, black)"/>
<path id="Vector_158" d="M425.09 3.19315L438.797 32.2186L470.641 36.2801C474.51 36.7703 475.28 42.0396 471.727 43.6326L414.463 69.2268C412.783 69.9796 410.909 68.6318 411.102 66.7936L417.755 4.41857C418.175 0.532165 423.409 -0.343135 425.09 3.17563V3.19315Z" fill="var(--fill-0, black)"/>
<path id="Vector_159" d="M484.26 78.1899L460.89 100.195L466.86 131.742C467.577 135.575 462.816 137.939 460.208 135.05L418.158 88.5012C416.914 87.1357 417.632 84.9474 419.435 84.5622L480.812 71.6076C484.629 70.8024 487.097 75.5114 484.26 78.1899Z" fill="var(--fill-0, black)"/>
</g>
</mask>
<g mask="url(#mask7_0_4)">
<path id="Vector_160" d="M989.963 54.1542V101.578C989.963 107.864 984.941 112.887 978.657 112.887C975.524 112.887 972.691 111.628 970.589 109.544L923.162 61.3843V111.96H913.114V64.5354C913.114 58.2506 918.138 53.2264 924.423 53.2264C927.556 53.2264 930.393 54.4868 932.493 56.57L979.919 104.73V54.1542H989.963Z" fill="var(--fill-0, #6EC1E4)" stroke="var(--stroke-1, #CFDDF6)" stroke-opacity="0.5" stroke-width="1.9277"/>
</g>
</g>
<g id="Mask group_9">
<mask id="mask8_0_4" style="mask-type:luminance" maskUnits="userSpaceOnUse" x="0" y="0" width="1277" height="160">
<g id="Group_10" opacity="0.2">
<path id="Vector_161" d="M1276.14 0H0V159.999H1276.14V0Z" fill="var(--fill-0, white)"/>
<path id="Vector_162" d="M77.1863 96.2563C77.1863 104.939 70.1663 111.959 61.4832 111.959H16.667C7.98393 111.959 0.963852 104.939 0.963852 96.2563V69.8744C0.963852 61.1912 7.98393 54.1712 16.667 54.1712H61.4832C70.1663 54.1712 77.1863 61.1912 77.1863 69.8744V96.2563ZM67.1378 101.911V64.2198H11.0126V101.911H67.1378Z" fill="var(--fill-0, black)"/>
<path id="Vector_163" d="M166.293 64.2025H133.627V111.942H123.578V64.2025H90.9113V54.1539H166.293V64.2025Z" fill="var(--fill-0, black)"/>
<path id="Vector_164" d="M256.224 96.2563C256.224 104.939 249.203 111.959 240.521 111.959H195.704C187.021 111.959 180.001 104.939 180.001 96.2563V69.8744C180.001 61.1912 187.021 54.1712 195.704 54.1712H256.224V64.2198H190.049V101.911H246.175V88.0984H216.765V78.0498H256.241V96.2739L256.224 96.2563Z" fill="var(--fill-0, black)"/>
<path id="Vector_165" d="M626.115 78.6628C626.115 87.3459 619.096 94.3659 610.412 94.3659H559.941V111.96H549.893V54.1715H610.412C619.096 54.1715 626.115 61.1914 626.115 69.8745V78.6628ZM616.067 84.3173V64.22H559.941V84.3173H616.067Z" fill="var(--fill-0, black)"/>
<path id="Vector_166" d="M721.192 111.96H708.518L698.889 98.3572H646.335L636.811 111.96H624.138L661.933 59.091C664.349 55.7473 668.218 53.2264 672.613 53.2264C677.006 53.2264 680.892 55.7473 683.291 59.091L721.192 111.96ZM691.677 88.2914L672.613 60.9641L653.565 88.2914H691.677Z" fill="var(--fill-0, black)"/>
<path id="Vector_167" d="M810.3 111.96H800.251V94.3659H744.126V111.96H734.076V54.1715H794.596C803.279 54.1715 810.3 61.1914 810.3 69.8745V78.6628C810.3 83.477 807.778 87.2409 803.909 89.3417C807.778 91.4424 810.3 95.2062 810.3 100.021V111.96ZM800.251 84.3173V64.22H744.126V84.3173H800.251Z" fill="var(--fill-0, black)"/>
<path id="Vector_168" d="M899.407 64.22H866.74V111.96H856.691V64.22H824.024V54.1715H899.407V64.22Z" fill="var(--fill-0, black)"/>
<path id="Vector_169" d="M989.963 54.1542V101.578C989.963 107.864 984.941 112.887 978.657 112.887C975.524 112.887 972.691 111.628 970.589 109.544L923.162 61.3843V111.96H913.114V64.5354C913.114 58.2506 918.138 53.2264 924.423 53.2264C927.556 53.2264 930.393 54.4868 932.493 56.57L979.919 104.73V54.1542H989.963Z" fill="var(--fill-0, black)"/>
<path id="Vector_170" d="M1084.94 111.96H1024.42C1015.74 111.96 1008.72 104.939 1008.72 96.2565V69.8745C1008.72 61.1914 1015.74 54.1715 1024.42 54.1715H1084.94V64.22H1018.76V78.0326H1084.94V88.0811H1018.76V101.894H1084.94V111.96Z" fill="var(--fill-0, black)"/>
<path id="Vector_171" d="M1179.89 111.96H1169.85V94.3659H1113.72V111.96H1103.67V54.1715H1164.19C1172.87 54.1715 1179.89 61.1914 1179.89 69.8745V78.6628C1179.89 83.477 1177.37 87.2409 1173.5 89.3417C1177.37 91.4424 1179.89 95.2062 1179.89 100.021V111.96ZM1169.85 84.3173V64.22H1113.72V84.3173H1169.85Z" fill="var(--fill-0, black)"/>
<path id="Vector_172" d="M1274.66 96.2565C1274.66 104.939 1267.63 111.96 1258.95 111.96H1198.43V101.911H1264.6V88.0987H1211.42C1202.74 88.0987 1195.72 81.0786 1195.72 72.3955V69.8745C1195.72 61.1914 1202.74 54.1715 1211.42 54.1715H1271.94V64.22H1205.77V78.0326H1258.95C1267.63 78.0326 1274.66 85.0525 1274.66 93.7357V96.2565Z" fill="var(--fill-0, black)"/>
<path id="Vector_173" d="M431.217 157.634L403.067 142.211L374.916 157.634C371.502 159.507 367.774 155.708 369.717 152.329L401.001 97.9553C401.928 96.3619 404.222 96.3619 405.149 97.9553L436.433 152.329C438.376 155.708 434.648 159.507 431.234 157.634H431.217Z" fill="var(--fill-0, black)"/>
<path id="Vector_174" d="M339.273 131.742L345.243 100.195L321.873 78.1899C319.036 75.5114 321.504 70.8024 325.321 71.6076L386.698 84.5622C388.501 84.9474 389.219 87.1357 387.976 88.5012L345.925 135.05C343.317 137.939 338.539 135.575 339.273 131.742Z" fill="var(--fill-0, black)"/>
<path id="Vector_175" d="M335.493 36.2977L367.337 32.2362L381.043 3.21085C382.707 -0.307914 387.959 0.567386 388.379 4.45379L395.031 66.8287C395.224 68.6668 393.368 70.0149 391.67 69.2621L334.407 43.6679C330.853 42.0748 331.624 36.8054 335.493 36.3152V36.2977Z" fill="var(--fill-0, black)"/>
<path id="Vector_176" d="M425.09 3.19315L438.797 32.2186L470.641 36.2801C474.51 36.7703 475.28 42.0396 471.727 43.6326L414.463 69.2268C412.783 69.9796 410.909 68.6318 411.102 66.7936L417.755 4.41857C418.175 0.532165 423.409 -0.343135 425.09 3.17563V3.19315Z" fill="var(--fill-0, black)"/>
<path id="Vector_177" d="M484.26 78.1899L460.89 100.195L466.86 131.742C467.577 135.575 462.816 137.939 460.208 135.05L418.158 88.5012C416.914 87.1357 417.632 84.9474 419.435 84.5622L480.812 71.6076C484.629 70.8024 487.097 75.5114 484.26 78.1899Z" fill="var(--fill-0, black)"/>
</g>
</mask>
<g mask="url(#mask8_0_4)">
<path id="Vector_178" d="M1084.94 111.96H1024.42C1015.74 111.96 1008.72 104.939 1008.72 96.2565V69.8745C1008.72 61.1914 1015.74 54.1715 1024.42 54.1715H1084.94V64.22H1018.76V78.0326H1084.94V88.0811H1018.76V101.894H1084.94V111.96Z" fill="var(--fill-0, #6EC1E4)" stroke="var(--stroke-1, #CFDDF6)" stroke-opacity="0.5" stroke-width="1.9277"/>
</g>
</g>
<g id="Mask group_10">
<mask id="mask9_0_4" style="mask-type:luminance" maskUnits="userSpaceOnUse" x="0" y="0" width="1277" height="160">
<g id="Group_11" opacity="0.2">
<path id="Vector_179" d="M1276.14 0H0V159.999H1276.14V0Z" fill="var(--fill-0, white)"/>
<path id="Vector_180" d="M77.1863 96.2563C77.1863 104.939 70.1663 111.959 61.4832 111.959H16.667C7.98393 111.959 0.963852 104.939 0.963852 96.2563V69.8744C0.963852 61.1912 7.98393 54.1712 16.667 54.1712H61.4832C70.1663 54.1712 77.1863 61.1912 77.1863 69.8744V96.2563ZM67.1378 101.911V64.2198H11.0126V101.911H67.1378Z" fill="var(--fill-0, black)"/>
<path id="Vector_181" d="M166.293 64.2025H133.627V111.942H123.578V64.2025H90.9113V54.1539H166.293V64.2025Z" fill="var(--fill-0, black)"/>
<path id="Vector_182" d="M256.224 96.2563C256.224 104.939 249.203 111.959 240.521 111.959H195.704C187.021 111.959 180.001 104.939 180.001 96.2563V69.8744C180.001 61.1912 187.021 54.1712 195.704 54.1712H256.224V64.2198H190.049V101.911H246.175V88.0984H216.765V78.0498H256.241V96.2739L256.224 96.2563Z" fill="var(--fill-0, black)"/>
<path id="Vector_183" d="M626.115 78.6628C626.115 87.3459 619.096 94.3659 610.412 94.3659H559.941V111.96H549.893V54.1715H610.412C619.096 54.1715 626.115 61.1914 626.115 69.8745V78.6628ZM616.067 84.3173V64.22H559.941V84.3173H616.067Z" fill="var(--fill-0, black)"/>
<path id="Vector_184" d="M721.192 111.96H708.518L698.889 98.3572H646.335L636.811 111.96H624.138L661.933 59.091C664.349 55.7473 668.218 53.2264 672.613 53.2264C677.006 53.2264 680.892 55.7473 683.291 59.091L721.192 111.96ZM691.677 88.2914L672.613 60.9641L653.565 88.2914H691.677Z" fill="var(--fill-0, black)"/>
<path id="Vector_185" d="M810.3 111.96H800.251V94.3659H744.126V111.96H734.076V54.1715H794.596C803.279 54.1715 810.3 61.1914 810.3 69.8745V78.6628C810.3 83.477 807.778 87.2409 803.909 89.3417C807.778 91.4424 810.3 95.2062 810.3 100.021V111.96ZM800.251 84.3173V64.22H744.126V84.3173H800.251Z" fill="var(--fill-0, black)"/>
<path id="Vector_186" d="M899.407 64.22H866.74V111.96H856.691V64.22H824.024V54.1715H899.407V64.22Z" fill="var(--fill-0, black)"/>
<path id="Vector_187" d="M989.963 54.1542V101.578C989.963 107.864 984.941 112.887 978.657 112.887C975.524 112.887 972.691 111.628 970.589 109.544L923.162 61.3843V111.96H913.114V64.5354C913.114 58.2506 918.138 53.2264 924.423 53.2264C927.556 53.2264 930.393 54.4868 932.493 56.57L979.919 104.73V54.1542H989.963Z" fill="var(--fill-0, black)"/>
<path id="Vector_188" d="M1084.94 111.96H1024.42C1015.74 111.96 1008.72 104.939 1008.72 96.2565V69.8745C1008.72 61.1914 1015.74 54.1715 1024.42 54.1715H1084.94V64.22H1018.76V78.0326H1084.94V88.0811H1018.76V101.894H1084.94V111.96Z" fill="var(--fill-0, black)"/>
<path id="Vector_189" d="M1179.89 111.96H1169.85V94.3659H1113.72V111.96H1103.67V54.1715H1164.19C1172.87 54.1715 1179.89 61.1914 1179.89 69.8745V78.6628C1179.89 83.477 1177.37 87.2409 1173.5 89.3417C1177.37 91.4424 1179.89 95.2062 1179.89 100.021V111.96ZM1169.85 84.3173V64.22H1113.72V84.3173H1169.85Z" fill="var(--fill-0, black)"/>
<path id="Vector_190" d="M1274.66 96.2565C1274.66 104.939 1267.63 111.96 1258.95 111.96H1198.43V101.911H1264.6V88.0987H1211.42C1202.74 88.0987 1195.72 81.0786 1195.72 72.3955V69.8745C1195.72 61.1914 1202.74 54.1715 1211.42 54.1715H1271.94V64.22H1205.77V78.0326H1258.95C1267.63 78.0326 1274.66 85.0525 1274.66 93.7357V96.2565Z" fill="var(--fill-0, black)"/>
<path id="Vector_191" d="M431.217 157.634L403.067 142.211L374.916 157.634C371.502 159.507 367.774 155.708 369.717 152.329L401.001 97.9553C401.928 96.3619 404.222 96.3619 405.149 97.9553L436.433 152.329C438.376 155.708 434.648 159.507 431.234 157.634H431.217Z" fill="var(--fill-0, black)"/>
<path id="Vector_192" d="M339.273 131.742L345.243 100.195L321.873 78.1899C319.036 75.5114 321.504 70.8024 325.321 71.6076L386.698 84.5622C388.501 84.9474 389.219 87.1357 387.976 88.5012L345.925 135.05C343.317 137.939 338.539 135.575 339.273 131.742Z" fill="var(--fill-0, black)"/>
<path id="Vector_193" d="M335.493 36.2977L367.337 32.2362L381.043 3.21085C382.707 -0.307914 387.959 0.567386 388.379 4.45379L395.031 66.8287C395.224 68.6668 393.368 70.0149 391.67 69.2621L334.407 43.6679C330.853 42.0748 331.624 36.8054 335.493 36.3152V36.2977Z" fill="var(--fill-0, black)"/>
<path id="Vector_194" d="M425.09 3.19315L438.797 32.2186L470.641 36.2801C474.51 36.7703 475.28 42.0396 471.727 43.6326L414.463 69.2268C412.783 69.9796 410.909 68.6318 411.102 66.7936L417.755 4.41857C418.175 0.532165 423.409 -0.343135 425.09 3.17563V3.19315Z" fill="var(--fill-0, black)"/>
<path id="Vector_195" d="M484.26 78.1899L460.89 100.195L466.86 131.742C467.577 135.575 462.816 137.939 460.208 135.05L418.158 88.5012C416.914 87.1357 417.632 84.9474 419.435 84.5622L480.812 71.6076C484.629 70.8024 487.097 75.5114 484.26 78.1899Z" fill="var(--fill-0, black)"/>
</g>
</mask>
<g mask="url(#mask9_0_4)">
<path id="Vector_196" d="M1179.89 111.96H1169.85V94.3659H1113.72V111.96H1103.67V54.1715H1164.19C1172.87 54.1715 1179.89 61.1914 1179.89 69.8745V78.6628C1179.89 83.477 1177.37 87.2409 1173.5 89.3417C1177.37 91.4424 1179.89 95.2062 1179.89 100.021V111.96ZM1169.85 84.3173V64.22H1113.72V84.3173H1169.85Z" fill="var(--fill-0, #6EC1E4)" stroke="var(--stroke-1, #CFDDF6)" stroke-opacity="0.5" stroke-width="1.9277"/>
</g>
</g>
<g id="Mask group_11">
<mask id="mask10_0_4" style="mask-type:luminance" maskUnits="userSpaceOnUse" x="0" y="0" width="1277" height="160">
<g id="Group_12" opacity="0.2">
<path id="Vector_197" d="M1276.14 0H0V159.999H1276.14V0Z" fill="var(--fill-0, white)"/>
<path id="Vector_198" d="M77.1863 96.2563C77.1863 104.939 70.1663 111.959 61.4832 111.959H16.667C7.98393 111.959 0.963852 104.939 0.963852 96.2563V69.8744C0.963852 61.1912 7.98393 54.1712 16.667 54.1712H61.4832C70.1663 54.1712 77.1863 61.1912 77.1863 69.8744V96.2563ZM67.1378 101.911V64.2198H11.0126V101.911H67.1378Z" fill="var(--fill-0, black)"/>
<path id="Vector_199" d="M166.293 64.2025H133.627V111.942H123.578V64.2025H90.9113V54.1539H166.293V64.2025Z" fill="var(--fill-0, black)"/>
<path id="Vector_200" d="M256.224 96.2563C256.224 104.939 249.203 111.959 240.521 111.959H195.704C187.021 111.959 180.001 104.939 180.001 96.2563V69.8744C180.001 61.1912 187.021 54.1712 195.704 54.1712H256.224V64.2198H190.049V101.911H246.175V88.0984H216.765V78.0498H256.241V96.2739L256.224 96.2563Z" fill="var(--fill-0, black)"/>
<path id="Vector_201" d="M626.115 78.6628C626.115 87.3459 619.096 94.3659 610.412 94.3659H559.941V111.96H549.893V54.1715H610.412C619.096 54.1715 626.115 61.1914 626.115 69.8745V78.6628ZM616.067 84.3173V64.22H559.941V84.3173H616.067Z" fill="var(--fill-0, black)"/>
<path id="Vector_202" d="M721.192 111.96H708.518L698.889 98.3572H646.335L636.811 111.96H624.138L661.933 59.091C664.349 55.7473 668.218 53.2264 672.613 53.2264C677.006 53.2264 680.892 55.7473 683.291 59.091L721.192 111.96ZM691.677 88.2914L672.613 60.9641L653.565 88.2914H691.677Z" fill="var(--fill-0, black)"/>
<path id="Vector_203" d="M810.3 111.96H800.251V94.3659H744.126V111.96H734.076V54.1715H794.596C803.279 54.1715 810.3 61.1914 810.3 69.8745V78.6628C810.3 83.477 807.778 87.2409 803.909 89.3417C807.778 91.4424 810.3 95.2062 810.3 100.021V111.96ZM800.251 84.3173V64.22H744.126V84.3173H800.251Z" fill="var(--fill-0, black)"/>
<path id="Vector_204" d="M899.407 64.22H866.74V111.96H856.691V64.22H824.024V54.1715H899.407V64.22Z" fill="var(--fill-0, black)"/>
<path id="Vector_205" d="M989.963 54.1542V101.578C989.963 107.864 984.941 112.887 978.657 112.887C975.524 112.887 972.691 111.628 970.589 109.544L923.162 61.3843V111.96H913.114V64.5354C913.114 58.2506 918.138 53.2264 924.423 53.2264C927.556 53.2264 930.393 54.4868 932.493 56.57L979.919 104.73V54.1542H989.963Z" fill="var(--fill-0, black)"/>
<path id="Vector_206" d="M1084.94 111.96H1024.42C1015.74 111.96 1008.72 104.939 1008.72 96.2565V69.8745C1008.72 61.1914 1015.74 54.1715 1024.42 54.1715H1084.94V64.22H1018.76V78.0326H1084.94V88.0811H1018.76V101.894H1084.94V111.96Z" fill="var(--fill-0, black)"/>
<path id="Vector_207" d="M1179.89 111.96H1169.85V94.3659H1113.72V111.96H1103.67V54.1715H1164.19C1172.87 54.1715 1179.89 61.1914 1179.89 69.8745V78.6628C1179.89 83.477 1177.37 87.2409 1173.5 89.3417C1177.37 91.4424 1179.89 95.2062 1179.89 100.021V111.96ZM1169.85 84.3173V64.22H1113.72V84.3173H1169.85Z" fill="var(--fill-0, black)"/>
<path id="Vector_208" d="M1274.66 96.2565C1274.66 104.939 1267.63 111.96 1258.95 111.96H1198.43V101.911H1264.6V88.0987H1211.42C1202.74 88.0987 1195.72 81.0786 1195.72 72.3955V69.8745C1195.72 61.1914 1202.74 54.1715 1211.42 54.1715H1271.94V64.22H1205.77V78.0326H1258.95C1267.63 78.0326 1274.66 85.0525 1274.66 93.7357V96.2565Z" fill="var(--fill-0, black)"/>
<path id="Vector_209" d="M431.217 157.634L403.067 142.211L374.916 157.634C371.502 159.507 367.774 155.708 369.717 152.329L401.001 97.9553C401.928 96.3619 404.222 96.3619 405.149 97.9553L436.433 152.329C438.376 155.708 434.648 159.507 431.234 157.634H431.217Z" fill="var(--fill-0, black)"/>
<path id="Vector_210" d="M339.273 131.742L345.243 100.195L321.873 78.1899C319.036 75.5114 321.504 70.8024 325.321 71.6076L386.698 84.5622C388.501 84.9474 389.219 87.1357 387.976 88.5012L345.925 135.05C343.317 137.939 338.539 135.575 339.273 131.742Z" fill="var(--fill-0, black)"/>
<path id="Vector_211" d="M335.493 36.2977L367.337 32.2362L381.043 3.21085C382.707 -0.307914 387.959 0.567386 388.379 4.45379L395.031 66.8287C395.224 68.6668 393.368 70.0149 391.67 69.2621L334.407 43.6679C330.853 42.0748 331.624 36.8054 335.493 36.3152V36.2977Z" fill="var(--fill-0, black)"/>
<path id="Vector_212" d="M425.09 3.19315L438.797 32.2186L470.641 36.2801C474.51 36.7703 475.28 42.0396 471.727 43.6326L414.463 69.2268C412.783 69.9796 410.909 68.6318 411.102 66.7936L417.755 4.41857C418.175 0.532165 423.409 -0.343135 425.09 3.17563V3.19315Z" fill="var(--fill-0, black)"/>
<path id="Vector_213" d="M484.26 78.1899L460.89 100.195L466.86 131.742C467.577 135.575 462.816 137.939 460.208 135.05L418.158 88.5012C416.914 87.1357 417.632 84.9474 419.435 84.5622L480.812 71.6076C484.629 70.8024 487.097 75.5114 484.26 78.1899Z" fill="var(--fill-0, black)"/>
</g>
</mask>
<g mask="url(#mask10_0_4)">
<path id="Vector_214" d="M1274.66 96.2565C1274.66 104.939 1267.63 111.96 1258.95 111.96H1198.43V101.911H1264.6V88.0987H1211.42C1202.74 88.0987 1195.72 81.0786 1195.72 72.3955V69.8745C1195.72 61.1914 1202.74 54.1715 1211.42 54.1715H1271.94V64.22H1205.77V78.0326H1258.95C1267.63 78.0326 1274.66 85.0525 1274.66 93.7357V96.2565Z" fill="var(--fill-0, #6EC1E4)" stroke="var(--stroke-1, #CFDDF6)" stroke-opacity="0.5" stroke-width="1.9277"/>
</g>
</g>
<g id="Mask group_12">
<mask id="mask11_0_4" style="mask-type:luminance" maskUnits="userSpaceOnUse" x="0" y="0" width="1277" height="160">
<g id="Group_13" opacity="0.2">
<path id="Vector_215" d="M1276.14 0H0V159.999H1276.14V0Z" fill="var(--fill-0, white)"/>
<path id="Vector_216" d="M77.1863 96.2563C77.1863 104.939 70.1663 111.959 61.4832 111.959H16.667C7.98393 111.959 0.963852 104.939 0.963852 96.2563V69.8744C0.963852 61.1912 7.98393 54.1712 16.667 54.1712H61.4832C70.1663 54.1712 77.1863 61.1912 77.1863 69.8744V96.2563ZM67.1378 101.911V64.2198H11.0126V101.911H67.1378Z" fill="var(--fill-0, black)"/>
<path id="Vector_217" d="M166.293 64.2025H133.627V111.942H123.578V64.2025H90.9113V54.1539H166.293V64.2025Z" fill="var(--fill-0, black)"/>
<path id="Vector_218" d="M256.224 96.2563C256.224 104.939 249.203 111.959 240.521 111.959H195.704C187.021 111.959 180.001 104.939 180.001 96.2563V69.8744C180.001 61.1912 187.021 54.1712 195.704 54.1712H256.224V64.2198H190.049V101.911H246.175V88.0984H216.765V78.0498H256.241V96.2739L256.224 96.2563Z" fill="var(--fill-0, black)"/>
<path id="Vector_219" d="M626.115 78.6628C626.115 87.3459 619.096 94.3659 610.412 94.3659H559.941V111.96H549.893V54.1715H610.412C619.096 54.1715 626.115 61.1914 626.115 69.8745V78.6628ZM616.067 84.3173V64.22H559.941V84.3173H616.067Z" fill="var(--fill-0, black)"/>
<path id="Vector_220" d="M721.192 111.96H708.518L698.889 98.3572H646.335L636.811 111.96H624.138L661.933 59.091C664.349 55.7473 668.218 53.2264 672.613 53.2264C677.006 53.2264 680.892 55.7473 683.291 59.091L721.192 111.96ZM691.677 88.2914L672.613 60.9641L653.565 88.2914H691.677Z" fill="var(--fill-0, black)"/>
<path id="Vector_221" d="M810.3 111.96H800.251V94.3659H744.126V111.96H734.076V54.1715H794.596C803.279 54.1715 810.3 61.1914 810.3 69.8745V78.6628C810.3 83.477 807.778 87.2409 803.909 89.3417C807.778 91.4424 810.3 95.2062 810.3 100.021V111.96ZM800.251 84.3173V64.22H744.126V84.3173H800.251Z" fill="var(--fill-0, black)"/>
<path id="Vector_222" d="M899.407 64.22H866.74V111.96H856.691V64.22H824.024V54.1715H899.407V64.22Z" fill="var(--fill-0, black)"/>
<path id="Vector_223" d="M989.963 54.1542V101.578C989.963 107.864 984.941 112.887 978.657 112.887C975.524 112.887 972.691 111.628 970.589 109.544L923.162 61.3843V111.96H913.114V64.5354C913.114 58.2506 918.138 53.2264 924.423 53.2264C927.556 53.2264 930.393 54.4868 932.493 56.57L979.919 104.73V54.1542H989.963Z" fill="var(--fill-0, black)"/>
<path id="Vector_224" d="M1084.94 111.96H1024.42C1015.74 111.96 1008.72 104.939 1008.72 96.2565V69.8745C1008.72 61.1914 1015.74 54.1715 1024.42 54.1715H1084.94V64.22H1018.76V78.0326H1084.94V88.0811H1018.76V101.894H1084.94V111.96Z" fill="var(--fill-0, black)"/>
<path id="Vector_225" d="M1179.89 111.96H1169.85V94.3659H1113.72V111.96H1103.67V54.1715H1164.19C1172.87 54.1715 1179.89 61.1914 1179.89 69.8745V78.6628C1179.89 83.477 1177.37 87.2409 1173.5 89.3417C1177.37 91.4424 1179.89 95.2062 1179.89 100.021V111.96ZM1169.85 84.3173V64.22H1113.72V84.3173H1169.85Z" fill="var(--fill-0, black)"/>
<path id="Vector_226" d="M1274.66 96.2565C1274.66 104.939 1267.63 111.96 1258.95 111.96H1198.43V101.911H1264.6V88.0987H1211.42C1202.74 88.0987 1195.72 81.0786 1195.72 72.3955V69.8745C1195.72 61.1914 1202.74 54.1715 1211.42 54.1715H1271.94V64.22H1205.77V78.0326H1258.95C1267.63 78.0326 1274.66 85.0525 1274.66 93.7357V96.2565Z" fill="var(--fill-0, black)"/>
<path id="Vector_227" d="M431.217 157.634L403.067 142.211L374.916 157.634C371.502 159.507 367.774 155.708 369.717 152.329L401.001 97.9553C401.928 96.3619 404.222 96.3619 405.149 97.9553L436.433 152.329C438.376 155.708 434.648 159.507 431.234 157.634H431.217Z" fill="var(--fill-0, black)"/>
<path id="Vector_228" d="M339.273 131.742L345.243 100.195L321.873 78.1899C319.036 75.5114 321.504 70.8024 325.321 71.6076L386.698 84.5622C388.501 84.9474 389.219 87.1357 387.976 88.5012L345.925 135.05C343.317 137.939 338.539 135.575 339.273 131.742Z" fill="var(--fill-0, black)"/>
<path id="Vector_229" d="M335.493 36.2977L367.337 32.2362L381.043 3.21085C382.707 -0.307914 387.959 0.567386 388.379 4.45379L395.031 66.8287C395.224 68.6668 393.368 70.0149 391.67 69.2621L334.407 43.6679C330.853 42.0748 331.624 36.8054 335.493 36.3152V36.2977Z" fill="var(--fill-0, black)"/>
<path id="Vector_230" d="M425.09 3.19315L438.797 32.2186L470.641 36.2801C474.51 36.7703 475.28 42.0396 471.727 43.6326L414.463 69.2268C412.783 69.9796 410.909 68.6318 411.102 66.7936L417.755 4.41857C418.175 0.532165 423.409 -0.343135 425.09 3.17563V3.19315Z" fill="var(--fill-0, black)"/>
<path id="Vector_231" d="M484.26 78.1899L460.89 100.195L466.86 131.742C467.577 135.575 462.816 137.939 460.208 135.05L418.158 88.5012C416.914 87.1357 417.632 84.9474 419.435 84.5622L480.812 71.6076C484.629 70.8024 487.097 75.5114 484.26 78.1899Z" fill="var(--fill-0, black)"/>
</g>
</mask>
<g mask="url(#mask11_0_4)">
<path id="Vector_232" d="M431.217 157.634L403.067 142.211L374.916 157.634C371.502 159.507 367.774 155.708 369.717 152.329L401.001 97.9553C401.928 96.3619 404.222 96.3619 405.149 97.9553L436.433 152.329C438.376 155.708 434.648 159.507 431.234 157.634H431.217Z" fill="var(--fill-0, #6EC1E4)" stroke="var(--stroke-1, #CFDDF6)" stroke-opacity="0.5" stroke-width="1.9277"/>
</g>
</g>
<g id="Mask group_13">
<mask id="mask12_0_4" style="mask-type:luminance" maskUnits="userSpaceOnUse" x="0" y="0" width="1277" height="160">
<g id="Group_14" opacity="0.2">
<path id="Vector_233" d="M1276.14 0H0V159.999H1276.14V0Z" fill="var(--fill-0, white)"/>
<path id="Vector_234" d="M77.1863 96.2563C77.1863 104.939 70.1663 111.959 61.4832 111.959H16.667C7.98393 111.959 0.963852 104.939 0.963852 96.2563V69.8744C0.963852 61.1912 7.98393 54.1712 16.667 54.1712H61.4832C70.1663 54.1712 77.1863 61.1912 77.1863 69.8744V96.2563ZM67.1378 101.911V64.2198H11.0126V101.911H67.1378Z" fill="var(--fill-0, black)"/>
<path id="Vector_235" d="M166.293 64.2025H133.627V111.942H123.578V64.2025H90.9113V54.1539H166.293V64.2025Z" fill="var(--fill-0, black)"/>
<path id="Vector_236" d="M256.224 96.2563C256.224 104.939 249.203 111.959 240.521 111.959H195.704C187.021 111.959 180.001 104.939 180.001 96.2563V69.8744C180.001 61.1912 187.021 54.1712 195.704 54.1712H256.224V64.2198H190.049V101.911H246.175V88.0984H216.765V78.0498H256.241V96.2739L256.224 96.2563Z" fill="var(--fill-0, black)"/>
<path id="Vector_237" d="M626.115 78.6628C626.115 87.3459 619.096 94.3659 610.412 94.3659H559.941V111.96H549.893V54.1715H610.412C619.096 54.1715 626.115 61.1914 626.115 69.8745V78.6628ZM616.067 84.3173V64.22H559.941V84.3173H616.067Z" fill="var(--fill-0, black)"/>
<path id="Vector_238" d="M721.192 111.96H708.518L698.889 98.3572H646.335L636.811 111.96H624.138L661.933 59.091C664.349 55.7473 668.218 53.2264 672.613 53.2264C677.006 53.2264 680.892 55.7473 683.291 59.091L721.192 111.96ZM691.677 88.2914L672.613 60.9641L653.565 88.2914H691.677Z" fill="var(--fill-0, black)"/>
<path id="Vector_239" d="M810.3 111.96H800.251V94.3659H744.126V111.96H734.076V54.1715H794.596C803.279 54.1715 810.3 61.1914 810.3 69.8745V78.6628C810.3 83.477 807.778 87.2409 803.909 89.3417C807.778 91.4424 810.3 95.2062 810.3 100.021V111.96ZM800.251 84.3173V64.22H744.126V84.3173H800.251Z" fill="var(--fill-0, black)"/>
<path id="Vector_240" d="M899.407 64.22H866.74V111.96H856.691V64.22H824.024V54.1715H899.407V64.22Z" fill="var(--fill-0, black)"/>
<path id="Vector_241" d="M989.963 54.1542V101.578C989.963 107.864 984.941 112.887 978.657 112.887C975.524 112.887 972.691 111.628 970.589 109.544L923.162 61.3843V111.96H913.114V64.5354C913.114 58.2506 918.138 53.2264 924.423 53.2264C927.556 53.2264 930.393 54.4868 932.493 56.57L979.919 104.73V54.1542H989.963Z" fill="var(--fill-0, black)"/>
<path id="Vector_242" d="M1084.94 111.96H1024.42C1015.74 111.96 1008.72 104.939 1008.72 96.2565V69.8745C1008.72 61.1914 1015.74 54.1715 1024.42 54.1715H1084.94V64.22H1018.76V78.0326H1084.94V88.0811H1018.76V101.894H1084.94V111.96Z" fill="var(--fill-0, black)"/>
<path id="Vector_243" d="M1179.89 111.96H1169.85V94.3659H1113.72V111.96H1103.67V54.1715H1164.19C1172.87 54.1715 1179.89 61.1914 1179.89 69.8745V78.6628C1179.89 83.477 1177.37 87.2409 1173.5 89.3417C1177.37 91.4424 1179.89 95.2062 1179.89 100.021V111.96ZM1169.85 84.3173V64.22H1113.72V84.3173H1169.85Z" fill="var(--fill-0, black)"/>
<path id="Vector_244" d="M1274.66 96.2565C1274.66 104.939 1267.63 111.96 1258.95 111.96H1198.43V101.911H1264.6V88.0987H1211.42C1202.74 88.0987 1195.72 81.0786 1195.72 72.3955V69.8745C1195.72 61.1914 1202.74 54.1715 1211.42 54.1715H1271.94V64.22H1205.77V78.0326H1258.95C1267.63 78.0326 1274.66 85.0525 1274.66 93.7357V96.2565Z" fill="var(--fill-0, black)"/>
<path id="Vector_245" d="M431.217 157.634L403.067 142.211L374.916 157.634C371.502 159.507 367.774 155.708 369.717 152.329L401.001 97.9553C401.928 96.3619 404.222 96.3619 405.149 97.9553L436.433 152.329C438.376 155.708 434.648 159.507 431.234 157.634H431.217Z" fill="var(--fill-0, black)"/>
<path id="Vector_246" d="M339.273 131.742L345.243 100.195L321.873 78.1899C319.036 75.5114 321.504 70.8024 325.321 71.6076L386.698 84.5622C388.501 84.9474 389.219 87.1357 387.976 88.5012L345.925 135.05C343.317 137.939 338.539 135.575 339.273 131.742Z" fill="var(--fill-0, black)"/>
<path id="Vector_247" d="M335.493 36.2977L367.337 32.2362L381.043 3.21085C382.707 -0.307914 387.959 0.567386 388.379 4.45379L395.031 66.8287C395.224 68.6668 393.368 70.0149 391.67 69.2621L334.407 43.6679C330.853 42.0748 331.624 36.8054 335.493 36.3152V36.2977Z" fill="var(--fill-0, black)"/>
<path id="Vector_248" d="M425.09 3.19315L438.797 32.2186L470.641 36.2801C474.51 36.7703 475.28 42.0396 471.727 43.6326L414.463 69.2268C412.783 69.9796 410.909 68.6318 411.102 66.7936L417.755 4.41857C418.175 0.532165 423.409 -0.343135 425.09 3.17563V3.19315Z" fill="var(--fill-0, black)"/>
<path id="Vector_249" d="M484.26 78.1899L460.89 100.195L466.86 131.742C467.577 135.575 462.816 137.939 460.208 135.05L418.158 88.5012C416.914 87.1357 417.632 84.9474 419.435 84.5622L480.812 71.6076C484.629 70.8024 487.097 75.5114 484.26 78.1899Z" fill="var(--fill-0, black)"/>
</g>
</mask>
<g mask="url(#mask12_0_4)">
<path id="Vector_250" d="M339.273 131.742L345.243 100.195L321.873 78.1899C319.036 75.5114 321.504 70.8024 325.321 71.6076L386.698 84.5622C388.501 84.9474 389.219 87.1357 387.976 88.5012L345.925 135.05C343.317 137.939 338.539 135.575 339.273 131.742Z" fill="var(--fill-0, #6EC1E4)" stroke="var(--stroke-1, #CFDDF6)" stroke-opacity="0.5" stroke-width="1.9277"/>
</g>
</g>
<g id="Mask group_14">
<mask id="mask13_0_4" style="mask-type:luminance" maskUnits="userSpaceOnUse" x="0" y="0" width="1277" height="160">
<g id="Group_15" opacity="0.2">
<path id="Vector_251" d="M1276.14 0H0V159.999H1276.14V0Z" fill="var(--fill-0, white)"/>
<path id="Vector_252" d="M77.1863 96.2563C77.1863 104.939 70.1663 111.959 61.4832 111.959H16.667C7.98393 111.959 0.963852 104.939 0.963852 96.2563V69.8744C0.963852 61.1912 7.98393 54.1712 16.667 54.1712H61.4832C70.1663 54.1712 77.1863 61.1912 77.1863 69.8744V96.2563ZM67.1378 101.911V64.2198H11.0126V101.911H67.1378Z" fill="var(--fill-0, black)"/>
<path id="Vector_253" d="M166.293 64.2025H133.627V111.942H123.578V64.2025H90.9113V54.1539H166.293V64.2025Z" fill="var(--fill-0, black)"/>
<path id="Vector_254" d="M256.224 96.2563C256.224 104.939 249.203 111.959 240.521 111.959H195.704C187.021 111.959 180.001 104.939 180.001 96.2563V69.8744C180.001 61.1912 187.021 54.1712 195.704 54.1712H256.224V64.2198H190.049V101.911H246.175V88.0984H216.765V78.0498H256.241V96.2739L256.224 96.2563Z" fill="var(--fill-0, black)"/>
<path id="Vector_255" d="M626.115 78.6628C626.115 87.3459 619.096 94.3659 610.412 94.3659H559.941V111.96H549.893V54.1715H610.412C619.096 54.1715 626.115 61.1914 626.115 69.8745V78.6628ZM616.067 84.3173V64.22H559.941V84.3173H616.067Z" fill="var(--fill-0, black)"/>
<path id="Vector_256" d="M721.192 111.96H708.518L698.889 98.3572H646.335L636.811 111.96H624.138L661.933 59.091C664.349 55.7473 668.218 53.2264 672.613 53.2264C677.006 53.2264 680.892 55.7473 683.291 59.091L721.192 111.96ZM691.677 88.2914L672.613 60.9641L653.565 88.2914H691.677Z" fill="var(--fill-0, black)"/>
<path id="Vector_257" d="M810.3 111.96H800.251V94.3659H744.126V111.96H734.076V54.1715H794.596C803.279 54.1715 810.3 61.1914 810.3 69.8745V78.6628C810.3 83.477 807.778 87.2409 803.909 89.3417C807.778 91.4424 810.3 95.2062 810.3 100.021V111.96ZM800.251 84.3173V64.22H744.126V84.3173H800.251Z" fill="var(--fill-0, black)"/>
<path id="Vector_258" d="M899.407 64.22H866.74V111.96H856.691V64.22H824.024V54.1715H899.407V64.22Z" fill="var(--fill-0, black)"/>
<path id="Vector_259" d="M989.963 54.1542V101.578C989.963 107.864 984.941 112.887 978.657 112.887C975.524 112.887 972.691 111.628 970.589 109.544L923.162 61.3843V111.96H913.114V64.5354C913.114 58.2506 918.138 53.2264 924.423 53.2264C927.556 53.2264 930.393 54.4868 932.493 56.57L979.919 104.73V54.1542H989.963Z" fill="var(--fill-0, black)"/>
<path id="Vector_260" d="M1084.94 111.96H1024.42C1015.74 111.96 1008.72 104.939 1008.72 96.2565V69.8745C1008.72 61.1914 1015.74 54.1715 1024.42 54.1715H1084.94V64.22H1018.76V78.0326H1084.94V88.0811H1018.76V101.894H1084.94V111.96Z" fill="var(--fill-0, black)"/>
<path id="Vector_261" d="M1179.89 111.96H1169.85V94.3659H1113.72V111.96H1103.67V54.1715H1164.19C1172.87 54.1715 1179.89 61.1914 1179.89 69.8745V78.6628C1179.89 83.477 1177.37 87.2409 1173.5 89.3417C1177.37 91.4424 1179.89 95.2062 1179.89 100.021V111.96ZM1169.85 84.3173V64.22H1113.72V84.3173H1169.85Z" fill="var(--fill-0, black)"/>
<path id="Vector_262" d="M1274.66 96.2565C1274.66 104.939 1267.63 111.96 1258.95 111.96H1198.43V101.911H1264.6V88.0987H1211.42C1202.74 88.0987 1195.72 81.0786 1195.72 72.3955V69.8745C1195.72 61.1914 1202.74 54.1715 1211.42 54.1715H1271.94V64.22H1205.77V78.0326H1258.95C1267.63 78.0326 1274.66 85.0525 1274.66 93.7357V96.2565Z" fill="var(--fill-0, black)"/>
<path id="Vector_263" d="M431.217 157.634L403.067 142.211L374.916 157.634C371.502 159.507 367.774 155.708 369.717 152.329L401.001 97.9553C401.928 96.3619 404.222 96.3619 405.149 97.9553L436.433 152.329C438.376 155.708 434.648 159.507 431.234 157.634H431.217Z" fill="var(--fill-0, black)"/>
<path id="Vector_264" d="M339.273 131.742L345.243 100.195L321.873 78.1899C319.036 75.5114 321.504 70.8024 325.321 71.6076L386.698 84.5622C388.501 84.9474 389.219 87.1357 387.976 88.5012L345.925 135.05C343.317 137.939 338.539 135.575 339.273 131.742Z" fill="var(--fill-0, black)"/>
<path id="Vector_265" d="M335.493 36.2977L367.337 32.2362L381.043 3.21085C382.707 -0.307914 387.959 0.567386 388.379 4.45379L395.031 66.8287C395.224 68.6668 393.368 70.0149 391.67 69.2621L334.407 43.6679C330.853 42.0748 331.624 36.8054 335.493 36.3152V36.2977Z" fill="var(--fill-0, black)"/>
<path id="Vector_266" d="M425.09 3.19315L438.797 32.2186L470.641 36.2801C474.51 36.7703 475.28 42.0396 471.727 43.6326L414.463 69.2268C412.783 69.9796 410.909 68.6318 411.102 66.7936L417.755 4.41857C418.175 0.532165 423.409 -0.343135 425.09 3.17563V3.19315Z" fill="var(--fill-0, black)"/>
<path id="Vector_267" d="M484.26 78.1899L460.89 100.195L466.86 131.742C467.577 135.575 462.816 137.939 460.208 135.05L418.158 88.5012C416.914 87.1357 417.632 84.9474 419.435 84.5622L480.812 71.6076C484.629 70.8024 487.097 75.5114 484.26 78.1899Z" fill="var(--fill-0, black)"/>
</g>
</mask>
<g mask="url(#mask13_0_4)">
<path id="Vector_268" d="M335.493 36.2977L367.337 32.2362L381.043 3.21085C382.707 -0.307914 387.959 0.567386 388.379 4.45379L395.031 66.8287C395.224 68.6668 393.368 70.0149 391.67 69.2621L334.407 43.6679C330.853 42.0748 331.624 36.8054 335.493 36.3152V36.2977Z" fill="var(--fill-0, #6EC1E4)" stroke="var(--stroke-1, #CFDDF6)" stroke-opacity="0.5" stroke-width="1.9277"/>
</g>
</g>
<g id="Mask group_15">
<mask id="mask14_0_4" style="mask-type:luminance" maskUnits="userSpaceOnUse" x="0" y="0" width="1277" height="160">
<g id="Group_16" opacity="0.2">
<path id="Vector_269" d="M1276.14 0H0V159.999H1276.14V0Z" fill="var(--fill-0, white)"/>
<path id="Vector_270" d="M77.1863 96.2563C77.1863 104.939 70.1663 111.959 61.4832 111.959H16.667C7.98393 111.959 0.963852 104.939 0.963852 96.2563V69.8744C0.963852 61.1912 7.98393 54.1712 16.667 54.1712H61.4832C70.1663 54.1712 77.1863 61.1912 77.1863 69.8744V96.2563ZM67.1378 101.911V64.2198H11.0126V101.911H67.1378Z" fill="var(--fill-0, black)"/>
<path id="Vector_271" d="M166.293 64.2025H133.627V111.942H123.578V64.2025H90.9113V54.1539H166.293V64.2025Z" fill="var(--fill-0, black)"/>
<path id="Vector_272" d="M256.224 96.2563C256.224 104.939 249.203 111.959 240.521 111.959H195.704C187.021 111.959 180.001 104.939 180.001 96.2563V69.8744C180.001 61.1912 187.021 54.1712 195.704 54.1712H256.224V64.2198H190.049V101.911H246.175V88.0984H216.765V78.0498H256.241V96.2739L256.224 96.2563Z" fill="var(--fill-0, black)"/>
<path id="Vector_273" d="M626.115 78.6628C626.115 87.3459 619.096 94.3659 610.412 94.3659H559.941V111.96H549.893V54.1715H610.412C619.096 54.1715 626.115 61.1914 626.115 69.8745V78.6628ZM616.067 84.3173V64.22H559.941V84.3173H616.067Z" fill="var(--fill-0, black)"/>
<path id="Vector_274" d="M721.192 111.96H708.518L698.889 98.3572H646.335L636.811 111.96H624.138L661.933 59.091C664.349 55.7473 668.218 53.2264 672.613 53.2264C677.006 53.2264 680.892 55.7473 683.291 59.091L721.192 111.96ZM691.677 88.2914L672.613 60.9641L653.565 88.2914H691.677Z" fill="var(--fill-0, black)"/>
<path id="Vector_275" d="M810.3 111.96H800.251V94.3659H744.126V111.96H734.076V54.1715H794.596C803.279 54.1715 810.3 61.1914 810.3 69.8745V78.6628C810.3 83.477 807.778 87.2409 803.909 89.3417C807.778 91.4424 810.3 95.2062 810.3 100.021V111.96ZM800.251 84.3173V64.22H744.126V84.3173H800.251Z" fill="var(--fill-0, black)"/>
<path id="Vector_276" d="M899.407 64.22H866.74V111.96H856.691V64.22H824.024V54.1715H899.407V64.22Z" fill="var(--fill-0, black)"/>
<path id="Vector_277" d="M989.963 54.1542V101.578C989.963 107.864 984.941 112.887 978.657 112.887C975.524 112.887 972.691 111.628 970.589 109.544L923.162 61.3843V111.96H913.114V64.5354C913.114 58.2506 918.138 53.2264 924.423 53.2264C927.556 53.2264 930.393 54.4868 932.493 56.57L979.919 104.73V54.1542H989.963Z" fill="var(--fill-0, black)"/>
<path id="Vector_278" d="M1084.94 111.96H1024.42C1015.74 111.96 1008.72 104.939 1008.72 96.2565V69.8745C1008.72 61.1914 1015.74 54.1715 1024.42 54.1715H1084.94V64.22H1018.76V78.0326H1084.94V88.0811H1018.76V101.894H1084.94V111.96Z" fill="var(--fill-0, black)"/>
<path id="Vector_279" d="M1179.89 111.96H1169.85V94.3659H1113.72V111.96H1103.67V54.1715H1164.19C1172.87 54.1715 1179.89 61.1914 1179.89 69.8745V78.6628C1179.89 83.477 1177.37 87.2409 1173.5 89.3417C1177.37 91.4424 1179.89 95.2062 1179.89 100.021V111.96ZM1169.85 84.3173V64.22H1113.72V84.3173H1169.85Z" fill="var(--fill-0, black)"/>
<path id="Vector_280" d="M1274.66 96.2565C1274.66 104.939 1267.63 111.96 1258.95 111.96H1198.43V101.911H1264.6V88.0987H1211.42C1202.74 88.0987 1195.72 81.0786 1195.72 72.3955V69.8745C1195.72 61.1914 1202.74 54.1715 1211.42 54.1715H1271.94V64.22H1205.77V78.0326H1258.95C1267.63 78.0326 1274.66 85.0525 1274.66 93.7357V96.2565Z" fill="var(--fill-0, black)"/>
<path id="Vector_281" d="M431.217 157.634L403.067 142.211L374.916 157.634C371.502 159.507 367.774 155.708 369.717 152.329L401.001 97.9553C401.928 96.3619 404.222 96.3619 405.149 97.9553L436.433 152.329C438.376 155.708 434.648 159.507 431.234 157.634H431.217Z" fill="var(--fill-0, black)"/>
<path id="Vector_282" d="M339.273 131.742L345.243 100.195L321.873 78.1899C319.036 75.5114 321.504 70.8024 325.321 71.6076L386.698 84.5622C388.501 84.9474 389.219 87.1357 387.976 88.5012L345.925 135.05C343.317 137.939 338.539 135.575 339.273 131.742Z" fill="var(--fill-0, black)"/>
<path id="Vector_283" d="M335.493 36.2977L367.337 32.2362L381.043 3.21085C382.707 -0.307914 387.959 0.567386 388.379 4.45379L395.031 66.8287C395.224 68.6668 393.368 70.0149 391.67 69.2621L334.407 43.6679C330.853 42.0748 331.624 36.8054 335.493 36.3152V36.2977Z" fill="var(--fill-0, black)"/>
<path id="Vector_284" d="M425.09 3.19315L438.797 32.2186L470.641 36.2801C474.51 36.7703 475.28 42.0396 471.727 43.6326L414.463 69.2268C412.783 69.9796 410.909 68.6318 411.102 66.7936L417.755 4.41857C418.175 0.532165 423.409 -0.343135 425.09 3.17563V3.19315Z" fill="var(--fill-0, black)"/>
<path id="Vector_285" d="M484.26 78.1899L460.89 100.195L466.86 131.742C467.577 135.575 462.816 137.939 460.208 135.05L418.158 88.5012C416.914 87.1357 417.632 84.9474 419.435 84.5622L480.812 71.6076C484.629 70.8024 487.097 75.5114 484.26 78.1899Z" fill="var(--fill-0, black)"/>
</g>
</mask>
<g mask="url(#mask14_0_4)">
<path id="Vector_286" d="M425.09 3.19315L438.797 32.2186L470.641 36.2801C474.51 36.7703 475.28 42.0396 471.727 43.6326L414.463 69.2268C412.783 69.9796 410.909 68.6318 411.102 66.7936L417.755 4.41857C418.175 0.532165 423.409 -0.343135 425.09 3.17563V3.19315Z" fill="var(--fill-0, #6EC1E4)" stroke="var(--stroke-1, #CFDDF6)" stroke-opacity="0.5" stroke-width="1.9277"/>
</g>
</g>
<g id="Mask group_16">
<mask id="mask15_0_4" style="mask-type:luminance" maskUnits="userSpaceOnUse" x="0" y="0" width="1277" height="160">
<g id="Group_17" opacity="0.2">
<path id="Vector_287" d="M1276.14 0H0V159.999H1276.14V0Z" fill="var(--fill-0, white)"/>
<path id="Vector_288" d="M77.1863 96.2563C77.1863 104.939 70.1663 111.959 61.4832 111.959H16.667C7.98393 111.959 0.963852 104.939 0.963852 96.2563V69.8744C0.963852 61.1912 7.98393 54.1712 16.667 54.1712H61.4832C70.1663 54.1712 77.1863 61.1912 77.1863 69.8744V96.2563ZM67.1378 101.911V64.2198H11.0126V101.911H67.1378Z" fill="var(--fill-0, black)"/>
<path id="Vector_289" d="M166.293 64.2025H133.627V111.942H123.578V64.2025H90.9113V54.1539H166.293V64.2025Z" fill="var(--fill-0, black)"/>
<path id="Vector_290" d="M256.224 96.2563C256.224 104.939 249.203 111.959 240.521 111.959H195.704C187.021 111.959 180.001 104.939 180.001 96.2563V69.8744C180.001 61.1912 187.021 54.1712 195.704 54.1712H256.224V64.2198H190.049V101.911H246.175V88.0984H216.765V78.0498H256.241V96.2739L256.224 96.2563Z" fill="var(--fill-0, black)"/>
<path id="Vector_291" d="M626.115 78.6628C626.115 87.3459 619.096 94.3659 610.412 94.3659H559.941V111.96H549.893V54.1715H610.412C619.096 54.1715 626.115 61.1914 626.115 69.8745V78.6628ZM616.067 84.3173V64.22H559.941V84.3173H616.067Z" fill="var(--fill-0, black)"/>
<path id="Vector_292" d="M721.192 111.96H708.518L698.889 98.3572H646.335L636.811 111.96H624.138L661.933 59.091C664.349 55.7473 668.218 53.2264 672.613 53.2264C677.006 53.2264 680.892 55.7473 683.291 59.091L721.192 111.96ZM691.677 88.2914L672.613 60.9641L653.565 88.2914H691.677Z" fill="var(--fill-0, black)"/>
<path id="Vector_293" d="M810.3 111.96H800.251V94.3659H744.126V111.96H734.076V54.1715H794.596C803.279 54.1715 810.3 61.1914 810.3 69.8745V78.6628C810.3 83.477 807.778 87.2409 803.909 89.3417C807.778 91.4424 810.3 95.2062 810.3 100.021V111.96ZM800.251 84.3173V64.22H744.126V84.3173H800.251Z" fill="var(--fill-0, black)"/>
<path id="Vector_294" d="M899.407 64.22H866.74V111.96H856.691V64.22H824.024V54.1715H899.407V64.22Z" fill="var(--fill-0, black)"/>
<path id="Vector_295" d="M989.963 54.1542V101.578C989.963 107.864 984.941 112.887 978.657 112.887C975.524 112.887 972.691 111.628 970.589 109.544L923.162 61.3843V111.96H913.114V64.5354C913.114 58.2506 918.138 53.2264 924.423 53.2264C927.556 53.2264 930.393 54.4868 932.493 56.57L979.919 104.73V54.1542H989.963Z" fill="var(--fill-0, black)"/>
<path id="Vector_296" d="M1084.94 111.96H1024.42C1015.74 111.96 1008.72 104.939 1008.72 96.2565V69.8745C1008.72 61.1914 1015.74 54.1715 1024.42 54.1715H1084.94V64.22H1018.76V78.0326H1084.94V88.0811H1018.76V101.894H1084.94V111.96Z" fill="var(--fill-0, black)"/>
<path id="Vector_297" d="M1179.89 111.96H1169.85V94.3659H1113.72V111.96H1103.67V54.1715H1164.19C1172.87 54.1715 1179.89 61.1914 1179.89 69.8745V78.6628C1179.89 83.477 1177.37 87.2409 1173.5 89.3417C1177.37 91.4424 1179.89 95.2062 1179.89 100.021V111.96ZM1169.85 84.3173V64.22H1113.72V84.3173H1169.85Z" fill="var(--fill-0, black)"/>
<path id="Vector_298" d="M1274.66 96.2565C1274.66 104.939 1267.63 111.96 1258.95 111.96H1198.43V101.911H1264.6V88.0987H1211.42C1202.74 88.0987 1195.72 81.0786 1195.72 72.3955V69.8745C1195.72 61.1914 1202.74 54.1715 1211.42 54.1715H1271.94V64.22H1205.77V78.0326H1258.95C1267.63 78.0326 1274.66 85.0525 1274.66 93.7357V96.2565Z" fill="var(--fill-0, black)"/>
<path id="Vector_299" d="M431.217 157.634L403.067 142.211L374.916 157.634C371.502 159.507 367.774 155.708 369.717 152.329L401.001 97.9553C401.928 96.3619 404.222 96.3619 405.149 97.9553L436.433 152.329C438.376 155.708 434.648 159.507 431.234 157.634H431.217Z" fill="var(--fill-0, black)"/>
<path id="Vector_300" d="M339.273 131.742L345.243 100.195L321.873 78.1899C319.036 75.5114 321.504 70.8024 325.321 71.6076L386.698 84.5622C388.501 84.9474 389.219 87.1357 387.976 88.5012L345.925 135.05C343.317 137.939 338.539 135.575 339.273 131.742Z" fill="var(--fill-0, black)"/>
<path id="Vector_301" d="M335.493 36.2977L367.337 32.2362L381.043 3.21085C382.707 -0.307914 387.959 0.567386 388.379 4.45379L395.031 66.8287C395.224 68.6668 393.368 70.0149 391.67 69.2621L334.407 43.6679C330.853 42.0748 331.624 36.8054 335.493 36.3152V36.2977Z" fill="var(--fill-0, black)"/>
<path id="Vector_302" d="M425.09 3.19315L438.797 32.2186L470.641 36.2801C474.51 36.7703 475.28 42.0396 471.727 43.6326L414.463 69.2268C412.783 69.9796 410.909 68.6318 411.102 66.7936L417.755 4.41857C418.175 0.532165 423.409 -0.343135 425.09 3.17563V3.19315Z" fill="var(--fill-0, black)"/>
<path id="Vector_303" d="M484.26 78.1899L460.89 100.195L466.86 131.742C467.577 135.575 462.816 137.939 460.208 135.05L418.158 88.5012C416.914 87.1357 417.632 84.9474 419.435 84.5622L480.812 71.6076C484.629 70.8024 487.097 75.5114 484.26 78.1899Z" fill="var(--fill-0, black)"/>
</g>
</mask>
<g mask="url(#mask15_0_4)">
<path id="Vector_304" d="M484.26 78.1899L460.89 100.195L466.86 131.742C467.577 135.575 462.816 137.939 460.208 135.05L418.158 88.5012C416.914 87.1357 417.632 84.9474 419.435 84.5622L480.812 71.6076C484.629 70.8024 487.097 75.5114 484.26 78.1899Z" fill="var(--fill-0, #6EC1E4)" stroke="var(--stroke-1, #CFDDF6)" stroke-opacity="0.5" stroke-width="1.9277"/>
</g>
</g>
</g>
<defs>
<linearGradient id="paint0_linear_0_4" x1="637.809" y1="0.963856" x2="637.809" y2="158.13" gradientUnits="userSpaceOnUse">
<stop stop-color="white" stop-opacity="0"/>
<stop offset="1" stop-color="#C8DBEF" stop-opacity="0.2"/>
</linearGradient>
<linearGradient id="paint1_linear_0_4" x1="637.809" y1="0.963851" x2="637.809" y2="158.13" gradientUnits="userSpaceOnUse">
<stop stop-color="white" stop-opacity="0"/>
<stop offset="1" stop-color="#C8DBEF" stop-opacity="0.2"/>
</linearGradient>
<linearGradient id="paint2_linear_0_4" x1="637.809" y1="0.963856" x2="637.809" y2="158.13" gradientUnits="userSpaceOnUse">
<stop stop-color="white" stop-opacity="0"/>
<stop offset="1" stop-color="#C8DBEF" stop-opacity="0.2"/>
</linearGradient>
<linearGradient id="paint3_linear_0_4" x1="637.809" y1="0.963852" x2="637.809" y2="158.13" gradientUnits="userSpaceOnUse">
<stop stop-color="white" stop-opacity="0"/>
<stop offset="1" stop-color="#C8DBEF" stop-opacity="0.2"/>
</linearGradient>
<linearGradient id="paint4_linear_0_4" x1="637.809" y1="0.963856" x2="637.809" y2="158.13" gradientUnits="userSpaceOnUse">
<stop stop-color="white" stop-opacity="0"/>
<stop offset="1" stop-color="#C8DBEF" stop-opacity="0.2"/>
</linearGradient>
<linearGradient id="paint5_linear_0_4" x1="637.809" y1="0.963852" x2="637.809" y2="158.13" gradientUnits="userSpaceOnUse">
<stop stop-color="white" stop-opacity="0"/>
<stop offset="1" stop-color="#C8DBEF" stop-opacity="0.2"/>
</linearGradient>
<linearGradient id="paint6_linear_0_4" x1="637.809" y1="0.963852" x2="637.809" y2="158.13" gradientUnits="userSpaceOnUse">
<stop stop-color="white" stop-opacity="0"/>
<stop offset="1" stop-color="#C8DBEF" stop-opacity="0.2"/>
</linearGradient>
<linearGradient id="paint7_linear_0_4" x1="637.809" y1="0.963851" x2="637.809" y2="158.13" gradientUnits="userSpaceOnUse">
<stop stop-color="white" stop-opacity="0"/>
<stop offset="1" stop-color="#C8DBEF" stop-opacity="0.2"/>
</linearGradient>
<linearGradient id="paint8_linear_0_4" x1="637.809" y1="0.963852" x2="637.809" y2="158.13" gradientUnits="userSpaceOnUse">
<stop stop-color="white" stop-opacity="0"/>
<stop offset="1" stop-color="#C8DBEF" stop-opacity="0.2"/>
</linearGradient>
<linearGradient id="paint9_linear_0_4" x1="637.809" y1="0.963852" x2="637.809" y2="158.13" gradientUnits="userSpaceOnUse">
<stop stop-color="white" stop-opacity="0"/>
<stop offset="1" stop-color="#C8DBEF" stop-opacity="0.2"/>
</linearGradient>
<linearGradient id="paint10_linear_0_4" x1="637.81" y1="0.963852" x2="637.81" y2="158.13" gradientUnits="userSpaceOnUse">
<stop stop-color="white" stop-opacity="0"/>
<stop offset="1" stop-color="#C8DBEF" stop-opacity="0.2"/>
</linearGradient>
<linearGradient id="paint11_linear_0_4" x1="637.809" y1="0.963835" x2="637.809" y2="158.13" gradientUnits="userSpaceOnUse">
<stop stop-color="white" stop-opacity="0"/>
<stop offset="1" stop-color="#C8DBEF" stop-opacity="0.2"/>
</linearGradient>
<linearGradient id="paint12_linear_0_4" x1="637.809" y1="0.963846" x2="637.809" y2="158.13" gradientUnits="userSpaceOnUse">
<stop stop-color="white" stop-opacity="0"/>
<stop offset="1" stop-color="#C8DBEF" stop-opacity="0.2"/>
</linearGradient>
<linearGradient id="paint13_linear_0_4" x1="637.809" y1="0.963852" x2="637.809" y2="158.13" gradientUnits="userSpaceOnUse">
<stop stop-color="white" stop-opacity="0"/>
<stop offset="1" stop-color="#C8DBEF" stop-opacity="0.2"/>
</linearGradient>
<linearGradient id="paint14_linear_0_4" x1="637.809" y1="0.963852" x2="637.809" y2="158.13" gradientUnits="userSpaceOnUse">
<stop stop-color="white" stop-opacity="0"/>
<stop offset="1" stop-color="#C8DBEF" stop-opacity="0.2"/>
</linearGradient>
<linearGradient id="paint15_linear_0_4" x1="637.809" y1="0.963846" x2="637.809" y2="158.13" gradientUnits="userSpaceOnUse">
<stop stop-color="white" stop-opacity="0"/>
<stop offset="1" stop-color="#C8DBEF" stop-opacity="0.2"/>
</linearGradient>
</defs>
</svg>
