<svg preserveAspectRatio="none" width="100%" height="100%" overflow="visible" style="display: block;" viewBox="0 0 14.2363 14.0163" fill="none" xmlns="http://www.w3.org/2000/svg">
<g id="Group 3">
<path id="Vector" d="M0 13.9157L0.0137749 14.0163C0.467182 13.9897 2.03619 13.9292 2.45371 13.9895C3.09583 13.9165 4.99088 13.9528 5.7564 13.9486C6.93462 12.7799 8.11975 11.6183 9.31211 10.4638C9.83889 9.94731 10.358 9.38191 10.8875 8.88356C11.1158 9.22772 10.9413 12.6905 10.9764 13.3473V13.9885H14.1688C14.188 11.0399 14.1919 8.09115 14.1815 5.1425C14.1837 3.51938 14.1518 1.61357 14.2363 0C13.6443 0.704941 12.6214 1.66081 11.9295 2.34013L7.21622 6.90125L2.41602 11.609C1.722 12.2847 0.721183 13.3143 0 13.9157Z" fill="var(--fill-0, black)"/>
</g>
</svg>
