<svg preserveAspectRatio="none" width="100%" height="100%" overflow="visible" style="display: block;" viewBox="0 0 99.7321 24.6741" fill="none" xmlns="http://www.w3.org/2000/svg">
<g id="LOGO">
<path id="Subtract" d="M47.5578 0.359335C50.7189 -0.406312 54.0555 0.13125 56.8156 1.85152C59.4601 3.49051 61.5011 6.2217 62.2257 9.2568C62.5325 10.2685 62.5912 11.4588 62.5822 11.9277C62.5623 12.2829 62.5269 12.6383 62.507 12.9921C62.3305 16.1284 60.7027 19.0119 58.3712 21.0664C57.7788 21.5883 57.1675 22.0921 56.5666 22.6045C56.6388 20.6002 56.5414 18.4875 56.5744 16.4746L56.5978 13.9453C56.8717 13.0875 56.968 12.1594 56.8429 11.2089C56.6477 9.72547 55.9498 8.42818 54.9416 7.45992C53.8535 6.38248 52.3667 5.72506 50.7189 5.64059C49.008 5.53678 47.3278 6.12815 46.0587 7.28023C45.005 8.23217 44.3066 9.50277 44.0587 10.8847C44.0499 10.9324 44.042 10.9803 44.0343 11.0283C44.0286 11.065 44.0228 11.1018 44.0177 11.1386C43.963 11.5228 43.9436 11.9162 43.9621 12.3154C44.0147 13.8425 44.5414 15.1696 45.6095 16.3242C44.397 17.4164 42.7856 19.1056 41.5841 20.2861C41.4017 19.9978 41.3285 19.9205 41.1056 19.6884L41.0871 19.6699C40.5729 20.3659 39.6808 21.1744 38.9962 21.6953C36.4034 23.6677 33.1085 24.4048 29.9005 23.9384C26.6793 23.4552 23.785 21.7019 21.8654 19.0703C19.9839 16.494 19.2163 13.2699 19.7335 10.122C20.22 6.99553 22.0749 4.15725 24.6222 2.30953C27.2232 0.429424 30.4663 -0.336921 33.6339 0.178671C36.4123 0.624229 39.3934 2.26563 41.0529 4.55172C42.589 2.50952 45.08 0.953851 47.5578 0.359335ZM38.1134 11.1904C37.6603 7.70112 34.4652 5.23977 30.9757 5.69137C27.4841 6.14326 25.0204 9.34056 25.4738 12.832C25.9272 16.3232 29.1262 18.7858 32.6173 18.331C36.1063 17.8763 38.5665 14.6796 38.1134 11.1904Z" fill="var(--fill-0, #F8F8F7)"/>
<path id="Subtract_2" d="M0.0103521 0.318599C2.66789 0.429406 5.508 0.343912 8.23106 0.34106C11.9099 0.337189 15.9967 0.166812 17.6881 4.27368C18.2295 5.58842 18.2133 7.64417 17.6178 8.9602C17.0786 10.1694 16.0706 11.107 14.8258 11.5579C18.6038 12.6939 19.7019 16.5007 18.2486 19.9241C16.2179 24.0854 11.9405 23.7983 8.03281 23.7825C5.39051 23.7718 2.64813 23.7279 0.0132818 23.8C0.0461253 22.8039 0.0381493 21.7303 0.0250005 20.7317C-0.0644685 13.94 0.123792 7.10649 0.0103521 0.318599ZM9.2291 14.0588C8.04541 14.0703 6.81563 14.0987 5.66563 14.0598C5.70063 15.5859 5.64929 17.1136 5.67051 18.635C6.82538 18.6025 7.98106 18.5921 9.13633 18.6028C10.2412 18.6049 11.5859 18.7674 12.4713 17.9797C12.9728 17.4323 13.1253 16.8554 13.0787 16.1409C12.9327 13.9062 10.8652 14.0431 9.2291 14.0588ZM12.3541 7.35961C12.2168 4.37278 7.6942 5.70358 5.70566 5.38501C5.62197 5.79681 5.68226 8.93437 5.65488 9.65356C6.55275 9.63762 7.45118 9.63102 8.34922 9.63501C9.42452 9.63757 10.9162 9.80891 11.7545 9.04126C12.2054 8.51117 12.3869 8.07327 12.3541 7.35961Z" fill="var(--fill-0, #F8F8F7)"/>
<path id="Vector" d="M69.0903 16.05C69.2588 18.4626 71.5732 19.2061 73.64 19.0754C75.0624 18.9855 76.7644 18.3419 76.5845 16.5997C76.4012 15.0776 74.2012 14.801 73.0082 14.5358C69.9555 13.8717 65.889 13.3509 64.3305 10.2257C63.2479 8.0544 63.4995 4.94103 65.0557 3.04072C66.5379 1.23108 68.6434 0.355005 70.9083 0.0927695C74.66 -0.34171 78.9337 0.69716 80.7073 4.35361C81.2395 5.44211 81.3841 6.32257 81.5116 7.51621C80.5565 7.45399 79.4875 7.47858 78.5193 7.47847C77.6444 7.47835 76.5908 7.44978 75.7307 7.51928C75.4842 5.12489 73.2307 4.56996 71.2021 4.95913C70.1211 5.16661 69.2331 6.13205 69.5058 7.26786C69.59 7.61878 69.8951 8.0668 70.2259 8.25408C73.1789 9.59389 76.3102 9.38761 79.2479 10.9526C82.6358 12.7573 83.1993 16.9022 81.4911 20.0926C80.6419 21.679 78.8904 22.9364 77.1953 23.4702C76.5936 23.6598 76.0187 23.7794 75.4091 23.9431C74.7312 24.0165 74.0686 24.1014 73.3861 24.1083C70.7951 24.1207 68.0959 23.6958 66.0427 22.0134C63.9691 20.3143 63.3737 18.5855 63.0925 16.0417C65.0881 16.0758 67.0844 16.0103 69.0903 16.05Z" fill="var(--fill-0, #F8F8F7)"/>
<path id="Vector_2" d="M99.5403 0.320032C99.6541 0.314112 99.6001 0.298913 99.6985 0.378546C99.772 1.95441 99.7014 4.0848 99.6997 5.69584C97.7979 5.62736 95.8381 5.7214 93.9307 5.65025C94.0275 7.55147 93.9506 10.2119 93.9512 12.1606L93.9444 23.8008C92.1582 23.7307 90.0396 23.7765 88.2335 23.7941C88.3131 22.1002 88.2465 19.8394 88.242 18.0946C88.2494 13.9724 88.1942 9.76315 88.2568 5.65013C86.3249 5.71502 84.3446 5.65827 82.4007 5.70222C82.4668 4.40117 82.4656 1.64214 82.4042 0.334832C84.6315 0.380141 87.0324 0.335401 89.2711 0.336312C92.6944 0.348379 96.1176 0.342971 99.5403 0.320032Z" fill="var(--fill-0, #F8F8F7)"/>
<path id="Vector_3" d="M39.8643 24.5697L39.8786 24.6741C40.3489 24.6465 41.9765 24.5837 42.4097 24.6463C43.0758 24.5705 45.0416 24.6082 45.8357 24.6038C47.0579 23.3915 48.2873 22.1865 49.5242 20.9889C50.0706 20.4531 50.6091 19.8666 51.1584 19.3497C51.3952 19.7067 51.2142 23.2987 51.2506 23.9801V24.6453H54.5623C54.5822 21.5865 54.5862 18.5277 54.5754 15.4689C54.5777 13.7852 54.5446 11.8082 54.6323 10.1343C54.0181 10.8656 52.9571 11.8572 52.2393 12.5619L47.35 17.2933L42.3706 22.1769C41.6506 22.8779 40.6124 23.9459 39.8643 24.5697Z" fill="var(--fill-0, #F8F8F7)"/>
</g>
</svg>
