<svg preserveAspectRatio="none" width="100%" height="100%" overflow="visible" style="display: block;" viewBox="0 0 12 12" fill="none" xmlns="http://www.w3.org/2000/svg">
<g id="SVG">
<path id="Vector" opacity="0.2" d="M9 1.875V10.125C9 10.3239 8.92095 10.5147 8.78032 10.6553C8.6397 10.7959 8.4489 10.875 8.25 10.875H3.75C3.55109 10.875 3.36032 10.7959 3.21967 10.6553C3.07902 10.5147 3 10.3239 3 10.125V1.875C3 1.67609 3.07902 1.48532 3.21967 1.34467C3.36032 1.20402 3.55109 1.125 3.75 1.125H8.25C8.4489 1.125 8.6397 1.20402 8.78032 1.34467C8.92095 1.48532 9 1.67609 9 1.875Z" fill="var(--fill-0, #CFDDF6)"/>
<path id="Vector_2" d="M8.25 0.75H3.75C3.45164 0.75 3.16548 0.86853 2.95451 1.0795C2.74353 1.29048 2.625 1.57664 2.625 1.875V10.125C2.625 10.4233 2.74353 10.7096 2.95451 10.9205C3.16548 11.1315 3.45164 11.25 3.75 11.25H8.25C8.54835 11.25 8.83455 11.1315 9.04553 10.9205C9.2565 10.7096 9.375 10.4233 9.375 10.125V1.875C9.375 1.57664 9.2565 1.29048 9.04553 1.0795C8.83455 0.86853 8.54835 0.75 8.25 0.75ZM8.625 10.125C8.625 10.2244 8.58547 10.3198 8.5152 10.3902C8.44485 10.4605 8.34945 10.5 8.25 10.5H3.75C3.65054 10.5 3.55516 10.4605 3.48484 10.3902C3.41451 10.3198 3.375 10.2244 3.375 10.125V1.875C3.375 1.77554 3.41451 1.68016 3.48484 1.60984C3.55516 1.53951 3.65054 1.5 3.75 1.5H8.25C8.34945 1.5 8.44485 1.53951 8.5152 1.60984C8.58547 1.68016 8.625 1.77554 8.625 1.875V10.125ZM7.875 2.625C7.875 2.72446 7.83547 2.81984 7.7652 2.89016C7.69485 2.96049 7.59945 3 7.5 3H4.5C4.40054 3 4.30516 2.96049 4.23484 2.89016C4.16451 2.81984 4.125 2.72446 4.125 2.625C4.125 2.52554 4.16451 2.43016 4.23484 2.35984C4.30516 2.28951 4.40054 2.25 4.5 2.25H7.5C7.59945 2.25 7.69485 2.28951 7.7652 2.35984C7.83547 2.43016 7.875 2.52554 7.875 2.625Z" fill="var(--fill-0, #CFDDF6)"/>
</g>
</svg>
