<svg preserveAspectRatio="none" width="100%" height="100%" overflow="visible" style="display: block;" viewBox="0 0 25.0001 25" fill="none" xmlns="http://www.w3.org/2000/svg">
<g id="Group">
<path id="Vector" d="M6.50003 21.5C8.70913 21.5 10.5 19.7091 10.5 17.5C10.5 15.2909 8.70913 13.5 6.50003 13.5C4.29089 13.5 2.50003 15.2909 2.50003 17.5C2.50003 19.7091 4.29089 21.5 6.50003 21.5Z" fill="url(#paint0_linear_0_7)"/>
<path id="Vector_2" d="M6.50003 8.5C8.70913 8.5 10.5 6.7091 10.5 4.5C10.5 2.29086 8.70913 0.5 6.50003 0.5C4.29089 0.5 2.50003 2.29086 2.50003 4.5C2.50003 6.7091 4.29089 8.5 6.50003 8.5Z" fill="url(#paint1_linear_0_7)"/>
<path id="Vector_3" d="M18.5 21.5C20.7091 21.5 22.5 19.7091 22.5 17.5C22.5 15.2909 20.7091 13.5 18.5 13.5C16.2909 13.5 14.5 15.2909 14.5 17.5C14.5 19.7091 16.2909 21.5 18.5 21.5Z" fill="url(#paint2_linear_0_7)"/>
<path id="Vector_4" d="M18.5 8.5C20.7091 8.5 22.5 6.7091 22.5 4.5C22.5 2.29086 20.7091 0.5 18.5 0.5C16.2909 0.5 14.5 2.29086 14.5 4.5C14.5 6.7091 16.2909 8.5 18.5 8.5Z" fill="url(#paint3_linear_0_7)"/>
<path id="Vector_5" d="M0.500029 24.5C1.19863 23.5685 2.10451 22.8125 3.14593 22.2918C4.18734 21.7711 5.33569 21.5 6.50003 21.5C7.66433 21.5 8.81273 21.7711 9.85413 22.2918C10.8955 22.8125 11.8014 23.5685 12.5 24.5C13.1986 23.5685 14.1045 22.8125 15.1459 22.2918C16.1873 21.7711 17.3357 21.5 18.5 21.5C19.6643 21.5 20.8127 21.7711 21.8541 22.2918C22.8955 22.8125 23.8014 23.5685 24.5 24.5" stroke="var(--stroke-0, white)" stroke-linecap="round" stroke-linejoin="round"/>
<path id="Vector_6" d="M0.500029 11.5C1.19863 10.5685 2.10451 9.8125 3.14593 9.2918C4.18734 8.7711 5.33569 8.5 6.50003 8.5C7.66433 8.5 8.81273 8.7711 9.85413 9.2918C10.8955 9.8125 11.8014 10.5685 12.5 11.5C13.1986 10.5685 14.1045 9.8125 15.1459 9.2918C16.1873 8.7711 17.3357 8.5 18.5 8.5C19.6643 8.5 20.8127 8.7711 21.8541 9.2918C22.8955 9.8125 23.8014 10.5685 24.5 11.5" stroke="var(--stroke-0, white)" stroke-linecap="round" stroke-linejoin="round"/>
<path id="Vector_7" d="M6.50003 21.5C8.70913 21.5 10.5 19.7091 10.5 17.5C10.5 15.2909 8.70913 13.5 6.50003 13.5C4.29089 13.5 2.50003 15.2909 2.50003 17.5C2.50003 19.7091 4.29089 21.5 6.50003 21.5Z" stroke="var(--stroke-0, white)" stroke-linecap="round" stroke-linejoin="round"/>
<path id="Vector_8" d="M6.50003 8.5C8.70913 8.5 10.5 6.7091 10.5 4.5C10.5 2.29086 8.70913 0.5 6.50003 0.5C4.29089 0.5 2.50003 2.29086 2.50003 4.5C2.50003 6.7091 4.29089 8.5 6.50003 8.5Z" stroke="var(--stroke-0, white)" stroke-linecap="round" stroke-linejoin="round"/>
<path id="Vector_9" d="M18.5 21.5C20.7091 21.5 22.5 19.7091 22.5 17.5C22.5 15.2909 20.7091 13.5 18.5 13.5C16.2909 13.5 14.5 15.2909 14.5 17.5C14.5 19.7091 16.2909 21.5 18.5 21.5Z" stroke="var(--stroke-0, white)" stroke-linecap="round" stroke-linejoin="round"/>
<path id="Vector_10" d="M18.5 8.5C20.7091 8.5 22.5 6.7091 22.5 4.5C22.5 2.29086 20.7091 0.5 18.5 0.5C16.2909 0.5 14.5 2.29086 14.5 4.5C14.5 6.7091 16.2909 8.5 18.5 8.5Z" stroke="var(--stroke-0, white)" stroke-linecap="round" stroke-linejoin="round"/>
</g>
<defs>
<linearGradient id="paint0_linear_0_7" x1="6.50003" y1="13.5" x2="6.50003" y2="21.5" gradientUnits="userSpaceOnUse">
<stop stop-color="#CFDDF6"/>
<stop offset="1" stop-color="#CFDDF6" stop-opacity="0"/>
</linearGradient>
<linearGradient id="paint1_linear_0_7" x1="6.50003" y1="0.5" x2="6.50003" y2="8.5" gradientUnits="userSpaceOnUse">
<stop stop-color="#CFDDF6"/>
<stop offset="1" stop-color="#CFDDF6" stop-opacity="0"/>
</linearGradient>
<linearGradient id="paint2_linear_0_7" x1="18.5" y1="13.5" x2="18.5" y2="21.5" gradientUnits="userSpaceOnUse">
<stop stop-color="#CFDDF6"/>
<stop offset="1" stop-color="#CFDDF6" stop-opacity="0"/>
</linearGradient>
<linearGradient id="paint3_linear_0_7" x1="18.5" y1="0.5" x2="18.5" y2="8.5" gradientUnits="userSpaceOnUse">
<stop stop-color="#CFDDF6"/>
<stop offset="1" stop-color="#CFDDF6" stop-opacity="0"/>
</linearGradient>
</defs>
</svg>
