<svg preserveAspectRatio="none" width="100%" height="100%" overflow="visible" style="display: block;" viewBox="0 0 30.4427 19.0002" fill="none" xmlns="http://www.w3.org/2000/svg">
<g id="Group">
<path id="Vector" d="M9.72131 13.5C13.3112 13.5 16.2213 10.5899 16.2213 7C16.2213 3.41015 13.3112 0.500001 9.72131 0.500001C6.13146 0.500001 3.22131 3.41015 3.22131 7C3.22131 10.5899 6.13146 13.5 9.72131 13.5Z" fill="url(#paint0_linear_0_18)"/>
<path id="Vector_2" d="M0.500058 18.5001C1.49892 16.9643 2.86555 15.7023 4.47589 14.8286C6.08622 13.955 7.88926 13.4974 9.72131 13.4974C11.5533 13.4974 13.3564 13.955 14.9667 14.8286C16.5771 15.7023 17.9437 16.9643 18.9425 18.5001" stroke="var(--stroke-0, white)" stroke-linecap="round" stroke-linejoin="round"/>
<path id="Vector_3" d="M20.7213 13.5C22.5533 13.4989 24.3564 13.9558 25.9669 14.829C27.5773 15.7022 28.944 16.9641 29.9426 18.5" stroke="var(--stroke-0, white)" stroke-linecap="round" stroke-linejoin="round"/>
<path id="Vector_4" d="M9.72131 13.5C13.3112 13.5 16.2213 10.5899 16.2213 7C16.2213 3.41015 13.3112 0.500001 9.72131 0.500001C6.13146 0.500001 3.22131 3.41015 3.22131 7C3.22131 10.5899 6.13146 13.5 9.72131 13.5Z" stroke="var(--stroke-0, white)" stroke-linecap="round" stroke-linejoin="round"/>
<path id="Vector_5" d="M18.3075 0.962501C19.1967 0.607871 20.1532 0.454001 21.1087 0.511901C22.0642 0.569801 22.9951 0.838021 23.8349 1.29742C24.6748 1.75681 25.4028 2.39602 25.9669 3.16939C26.531 3.9428 26.9174 4.8312 27.0984 5.7712C27.2793 6.7112 27.2504 7.6795 27.0138 8.6071C26.7771 9.5346 26.3385 10.3984 25.7292 11.1368C25.12 11.8752 24.3552 12.4698 23.4895 12.8784C22.6238 13.2869 21.6785 13.4992 20.7213 13.5" stroke="var(--stroke-0, white)" stroke-linecap="round" stroke-linejoin="round"/>
</g>
<defs>
<linearGradient id="paint0_linear_0_18" x1="9.72131" y1="0.500001" x2="9.72131" y2="13.5" gradientUnits="userSpaceOnUse">
<stop stop-color="#CFDDF6"/>
<stop offset="1" stop-color="#CFDDF6" stop-opacity="0"/>
</linearGradient>
</defs>
</svg>
