<svg preserveAspectRatio="none" width="100%" height="100%" overflow="visible" style="display: block;" viewBox="0 0 32 32" fill="none" xmlns="http://www.w3.org/2000/svg">
<g id="SVG">
<path id="Vector" d="M17.9028 6.50932L13.4424 7.52311V19.4862L17.4299 20.1621L23.2425 23.0684L24.3915 22.2573V4.9547V3.94092H23.2425L17.9028 6.50932Z" fill="url(#paint0_linear_0_4)"/>
<path id="Vector_2" d="M5.33336 18.6667L7.43288 27.0648C7.49193 27.301 7.52145 27.4191 7.55638 27.5222C7.89758 28.5295 8.80471 29.2378 9.86472 29.3245C9.97322 29.3333 10.095 29.3333 10.3384 29.3333C10.6433 29.3333 10.7957 29.3333 10.9241 29.3209C12.1933 29.1978 13.1978 28.1933 13.3209 26.9241C13.3334 26.7957 13.3334 26.6433 13.3334 26.3384V7.33334M24.6667 18C27.244 18 29.3334 15.9107 29.3334 13.3333C29.3334 10.756 27.244 8.66667 24.6667 8.66667M13.6667 7.33334H8.66669C5.35298 7.33334 2.66668 10.0196 2.66669 13.3333C2.66669 16.647 5.35298 19.3333 8.66669 19.3333H13.6667C16.0219 19.3333 18.903 20.5959 21.1257 21.8075C22.4225 22.5144 23.0708 22.8678 23.4955 22.8158C23.8892 22.7676 24.187 22.5908 24.4178 22.2682C24.6667 21.9202 24.6667 21.224 24.6667 19.8316V6.83505C24.6667 5.44266 24.6667 4.74647 24.4178 4.39852C24.187 4.07587 23.8892 3.89907 23.4955 3.85084C23.0708 3.79883 22.4225 4.15227 21.1257 4.85914C18.903 6.07082 16.0219 7.33334 13.6667 7.33334Z" stroke="var(--stroke-0, white)" stroke-linecap="round" stroke-linejoin="round"/>
</g>
<defs>
<linearGradient id="paint0_linear_0_4" x1="18.9169" y1="3.94092" x2="18.9169" y2="23.0684" gradientUnits="userSpaceOnUse">
<stop stop-color="#CFDDF6"/>
<stop offset="1" stop-color="#CFDDF6" stop-opacity="0"/>
</linearGradient>
</defs>
</svg>
