<svg preserveAspectRatio="none" width="100%" height="100%" overflow="visible" style="display: block;" viewBox="0 0 32 32" fill="none" xmlns="http://www.w3.org/2000/svg">
<g id="SVG">
<path id="Vector" d="M16 24C20.4182 24 24 20.4182 24 16C24 11.5817 20.4182 7.99996 16 7.99996C11.5817 7.99996 7.99996 11.5817 7.99996 16C7.99996 20.4182 11.5817 24 16 24Z" fill="url(#paint0_linear_0_24)"/>
<path id="Vector_2" d="M16 29.3333C23.3638 29.3333 29.3333 23.3638 29.3333 16C29.3333 8.63616 23.3638 2.66663 16 2.66663C8.63616 2.66663 2.66663 8.63616 2.66663 16C2.66663 23.3638 8.63616 29.3333 16 29.3333Z" stroke="var(--stroke-0, white)" stroke-linecap="round" stroke-linejoin="round"/>
<path id="Vector_3" d="M16 24C20.4182 24 24 20.4182 24 16C24 11.5817 20.4182 7.99996 16 7.99996C11.5817 7.99996 7.99996 11.5817 7.99996 16C7.99996 20.4182 11.5817 24 16 24Z" stroke="var(--stroke-0, white)" stroke-linecap="round" stroke-linejoin="round"/>
<path id="Vector_4" d="M16 18.6666C17.4727 18.6666 18.6666 17.4727 18.6666 16C18.6666 14.5272 17.4727 13.3333 16 13.3333C14.5272 13.3333 13.3333 14.5272 13.3333 16C13.3333 17.4727 14.5272 18.6666 16 18.6666Z" stroke="var(--stroke-0, white)" stroke-linecap="round" stroke-linejoin="round"/>
</g>
<defs>
<linearGradient id="paint0_linear_0_24" x1="16" y1="2.66663" x2="16" y2="29.3333" gradientUnits="userSpaceOnUse">
<stop stop-color="#CFDDF6"/>
<stop offset="1" stop-color="#CFDDF6" stop-opacity="0"/>
</linearGradient>
</defs>
</svg>
